solid OpenSCAD_Model
  facet normal 0.994522 0.104529 0
    outer loop
      vertex 26.5 0 0.875
      vertex 25.9209 5.50966 -0.875
      vertex 25.9209 5.50966 0.875
    endloop
  endfacet
  facet normal 0.994522 0.104529 0
    outer loop
      vertex 25.9209 5.50966 -0.875
      vertex 26.5 0 0.875
      vertex 26.5 0 -0.875
    endloop
  endfacet
  facet normal -0.994522 0.104529 0
    outer loop
      vertex -26.5 0 -0.875
      vertex -25.9209 5.50966 0.875
      vertex -25.9209 5.50966 -0.875
    endloop
  endfacet
  facet normal -0.994522 0.104529 0
    outer loop
      vertex -25.9209 5.50966 0.875
      vertex -26.5 0 -0.875
      vertex -26.5 0 0.875
    endloop
  endfacet
  facet normal 0 -1 0
    outer loop
      vertex -2.77 -26.3548 -0.875
      vertex 2.77 -26.3548 0.875
      vertex -2.77 -26.3548 0.875
    endloop
  endfacet
  facet normal 0 -1 -0
    outer loop
      vertex 2.77 -26.3548 0.875
      vertex -2.77 -26.3548 -0.875
      vertex 2.77 -26.3548 -0.875
    endloop
  endfacet
  facet normal 0.587785 0.809017 -0
    outer loop
      vertex 17.732 19.6933 -0.875
      vertex 13.25 22.9497 0.875
      vertex 17.732 19.6933 0.875
    endloop
  endfacet
  facet normal 0.587785 0.809017 0
    outer loop
      vertex 13.25 22.9497 0.875
      vertex 17.732 19.6933 -0.875
      vertex 13.25 22.9497 -0.875
    endloop
  endfacet
  facet normal -0.587785 0.809017 0
    outer loop
      vertex -13.25 22.9497 -0.875
      vertex -17.732 19.6933 0.875
      vertex -13.25 22.9497 0.875
    endloop
  endfacet
  facet normal -0.587785 0.809017 0
    outer loop
      vertex -17.732 19.6933 0.875
      vertex -13.25 22.9497 -0.875
      vertex -17.732 19.6933 -0.875
    endloop
  endfacet
  facet normal -0.406737 0.913545 0
    outer loop
      vertex -8.18895 25.203 -0.875
      vertex -13.25 22.9497 0.875
      vertex -8.18895 25.203 0.875
    endloop
  endfacet
  facet normal -0.406737 0.913545 0
    outer loop
      vertex -13.25 22.9497 0.875
      vertex -8.18895 25.203 -0.875
      vertex -13.25 22.9497 -0.875
    endloop
  endfacet
  facet normal 0.951057 -0.309017 0
    outer loop
      vertex 24.209 -10.7785 0.875
      vertex 25.9209 -5.50966 -0.875
      vertex 25.9209 -5.50966 0.875
    endloop
  endfacet
  facet normal 0.951057 -0.309017 0
    outer loop
      vertex 25.9209 -5.50966 -0.875
      vertex 24.209 -10.7785 0.875
      vertex 24.209 -10.7785 -0.875
    endloop
  endfacet
  facet normal 0.866025 0.5 0
    outer loop
      vertex 24.209 10.7785 0.875
      vertex 21.4389 15.5763 -0.875
      vertex 21.4389 15.5763 0.875
    endloop
  endfacet
  facet normal 0.866025 0.5 0
    outer loop
      vertex 21.4389 15.5763 -0.875
      vertex 24.209 10.7785 0.875
      vertex 24.209 10.7785 -0.875
    endloop
  endfacet
  facet normal 0.951057 0.309017 0
    outer loop
      vertex 25.9209 5.50966 0.875
      vertex 24.209 10.7785 -0.875
      vertex 24.209 10.7785 0.875
    endloop
  endfacet
  facet normal 0.951057 0.309017 0
    outer loop
      vertex 24.209 10.7785 -0.875
      vertex 25.9209 5.50966 0.875
      vertex 25.9209 5.50966 -0.875
    endloop
  endfacet
  facet normal 0.743145 0.669131 0
    outer loop
      vertex 21.4389 15.5763 0.875
      vertex 17.732 19.6933 -0.875
      vertex 17.732 19.6933 0.875
    endloop
  endfacet
  facet normal 0.743145 0.669131 0
    outer loop
      vertex 17.732 19.6933 -0.875
      vertex 21.4389 15.5763 0.875
      vertex 21.4389 15.5763 -0.875
    endloop
  endfacet
  facet normal 0.207912 0.978148 -0
    outer loop
      vertex 8.18895 25.203 -0.875
      vertex 4.5 25.9871 0.875
      vertex 8.18895 25.203 0.875
    endloop
  endfacet
  facet normal 0.207912 0.978148 0
    outer loop
      vertex 4.5 25.9871 0.875
      vertex 8.18895 25.203 -0.875
      vertex 4.5 25.9871 -0.875
    endloop
  endfacet
  facet normal 0.406737 0.913545 -0
    outer loop
      vertex 13.25 22.9497 -0.875
      vertex 8.18895 25.203 0.875
      vertex 13.25 22.9497 0.875
    endloop
  endfacet
  facet normal 0.406737 0.913545 0
    outer loop
      vertex 8.18895 25.203 0.875
      vertex 13.25 22.9497 -0.875
      vertex 8.18895 25.203 -0.875
    endloop
  endfacet
  facet normal -0.866025 0.5 0
    outer loop
      vertex -24.209 10.7785 -0.875
      vertex -21.4389 15.5763 0.875
      vertex -21.4389 15.5763 -0.875
    endloop
  endfacet
  facet normal -0.866025 0.5 0
    outer loop
      vertex -21.4389 15.5763 0.875
      vertex -24.209 10.7785 -0.875
      vertex -24.209 10.7785 0.875
    endloop
  endfacet
  facet normal -0.743145 0.669131 0
    outer loop
      vertex -21.4389 15.5763 -0.875
      vertex -17.732 19.6933 0.875
      vertex -17.732 19.6933 -0.875
    endloop
  endfacet
  facet normal -0.743145 0.669131 0
    outer loop
      vertex -17.732 19.6933 0.875
      vertex -21.4389 15.5763 -0.875
      vertex -21.4389 15.5763 0.875
    endloop
  endfacet
  facet normal -0.951057 0.309017 0
    outer loop
      vertex -25.9209 5.50966 -0.875
      vertex -24.209 10.7785 0.875
      vertex -24.209 10.7785 -0.875
    endloop
  endfacet
  facet normal -0.951057 0.309017 0
    outer loop
      vertex -24.209 10.7785 0.875
      vertex -25.9209 5.50966 -0.875
      vertex -25.9209 5.50966 0.875
    endloop
  endfacet
  facet normal -0 0 1
    outer loop
      vertex -8.18895 25.203 0.875
      vertex -4.5 8 0.875
      vertex -4.5 25.9871 0.875
    endloop
  endfacet
  facet normal -0 0 1
    outer loop
      vertex -13.25 22.9497 0.875
      vertex -4.5 8 0.875
      vertex -8.18895 25.203 0.875
    endloop
  endfacet
  facet normal -0 0 1
    outer loop
      vertex -17.732 19.6933 0.875
      vertex -4.5 8 0.875
      vertex -13.25 22.9497 0.875
    endloop
  endfacet
  facet normal 0 0 1
    outer loop
      vertex -4.5 8 0.875
      vertex -17.732 19.6933 0.875
      vertex -6.02217 6.6883 0.875
    endloop
  endfacet
  facet normal 0 0 1
    outer loop
      vertex -6.02217 6.6883 0.875
      vertex -17.732 19.6933 0.875
      vertex -7.28115 5.29007 0.875
    endloop
  endfacet
  facet normal -0 0 1
    outer loop
      vertex -21.4389 15.5763 0.875
      vertex -7.28115 5.29007 0.875
      vertex -17.732 19.6933 0.875
    endloop
  endfacet
  facet normal 0 0 1
    outer loop
      vertex -7.28115 5.29007 0.875
      vertex -21.4389 15.5763 0.875
      vertex -8.22191 3.66063 0.875
    endloop
  endfacet
  facet normal -0 0 1
    outer loop
      vertex -4.5 8 0.875
      vertex -4.5 7.79423 0.875
      vertex -4.03783 8 0.875
    endloop
  endfacet
  facet normal 0 0 1
    outer loop
      vertex -4.5 7.79423 0.875
      vertex -4.5 8 0.875
      vertex -6.02217 6.6883 0.875
    endloop
  endfacet
  facet normal 0 0 1
    outer loop
      vertex 9 0 0.875
      vertex 26.5 0 0.875
      vertex 25.9209 5.50966 0.875
    endloop
  endfacet
  facet normal 0 0 1
    outer loop
      vertex 8.80333 1.8712 0.875
      vertex 25.9209 5.50966 0.875
      vertex 24.209 10.7785 0.875
    endloop
  endfacet
  facet normal 0 0 1
    outer loop
      vertex 26.5 0 0.875
      vertex 9 0 0.875
      vertex 25.9209 -5.50966 0.875
    endloop
  endfacet
  facet normal 0 0 1
    outer loop
      vertex 8.22191 3.66063 0.875
      vertex 24.209 10.7785 0.875
      vertex 21.4389 15.5763 0.875
    endloop
  endfacet
  facet normal -0 0 1
    outer loop
      vertex 8.80333 -1.8712 0.875
      vertex 25.9209 -5.50966 0.875
      vertex 9 0 0.875
    endloop
  endfacet
  facet normal 0 0 1
    outer loop
      vertex 7.28115 5.29007 0.875
      vertex 21.4389 15.5763 0.875
      vertex 17.732 19.6933 0.875
    endloop
  endfacet
  facet normal 0 0 1
    outer loop
      vertex 25.9209 -5.50966 0.875
      vertex 8.80333 -1.8712 0.875
      vertex 24.209 -10.7785 0.875
    endloop
  endfacet
  facet normal 0 0 1
    outer loop
      vertex 4.5 8 0.875
      vertex 17.732 19.6933 0.875
      vertex 13.25 22.9497 0.875
    endloop
  endfacet
  facet normal -0 0 1
    outer loop
      vertex 8.22191 -3.66063 0.875
      vertex 24.209 -10.7785 0.875
      vertex 8.80333 -1.8712 0.875
    endloop
  endfacet
  facet normal 0 0 1
    outer loop
      vertex 24.209 -10.7785 0.875
      vertex 8.22191 -3.66063 0.875
      vertex 21.4389 -15.5763 0.875
    endloop
  endfacet
  facet normal 0 0 1
    outer loop
      vertex 25.9209 5.50966 0.875
      vertex 8.80333 1.8712 0.875
      vertex 9 0 0.875
    endloop
  endfacet
  facet normal 0 0 1
    outer loop
      vertex 24.209 10.7785 0.875
      vertex 8.22191 3.66063 0.875
      vertex 8.80333 1.8712 0.875
    endloop
  endfacet
  facet normal 0 0 1
    outer loop
      vertex 4.5 8 0.875
      vertex 13.25 22.9497 0.875
      vertex 8.18895 25.203 0.875
    endloop
  endfacet
  facet normal 0 0 1
    outer loop
      vertex 21.4389 15.5763 0.875
      vertex 7.28115 5.29007 0.875
      vertex 8.22191 3.66063 0.875
    endloop
  endfacet
  facet normal 0 0 1
    outer loop
      vertex 17.732 19.6933 0.875
      vertex 6.02217 6.6883 0.875
      vertex 7.28115 5.29007 0.875
    endloop
  endfacet
  facet normal 0 0 1
    outer loop
      vertex 4.5 8 0.875
      vertex 8.18895 25.203 0.875
      vertex 4.5 25.9871 0.875
    endloop
  endfacet
  facet normal 0 0 1
    outer loop
      vertex 17.732 19.6933 0.875
      vertex 4.5 8 0.875
      vertex 6.02217 6.6883 0.875
    endloop
  endfacet
  facet normal 0 0 1
    outer loop
      vertex 4.5 8 0.875
      vertex 4.5 7.79423 0.875
      vertex 6.02217 6.6883 0.875
    endloop
  endfacet
  facet normal 0 -0 1
    outer loop
      vertex 4.5 7.79423 0.875
      vertex 4.5 8 0.875
      vertex 4.03783 8 0.875
    endloop
  endfacet
  facet normal -0 0 1
    outer loop
      vertex 7.28115 -5.29007 0.875
      vertex 21.4389 -15.5763 0.875
      vertex 8.22191 -3.66063 0.875
    endloop
  endfacet
  facet normal 0 0 1
    outer loop
      vertex 21.4389 -15.5763 0.875
      vertex 7.28115 -5.29007 0.875
      vertex 17.732 -19.6933 0.875
    endloop
  endfacet
  facet normal -0 0 1
    outer loop
      vertex 6.02217 -6.6883 0.875
      vertex 17.732 -19.6933 0.875
      vertex 7.28115 -5.29007 0.875
    endloop
  endfacet
  facet normal 0 0 1
    outer loop
      vertex 17.732 -19.6933 0.875
      vertex 6.02217 -6.6883 0.875
      vertex 13.25 -22.9497 0.875
    endloop
  endfacet
  facet normal -0 0 1
    outer loop
      vertex 4.5 -7.79423 0.875
      vertex 13.25 -22.9497 0.875
      vertex 6.02217 -6.6883 0.875
    endloop
  endfacet
  facet normal 0 0 1
    outer loop
      vertex 13.25 -22.9497 0.875
      vertex 4.5 -7.79423 0.875
      vertex 8.18895 -25.203 0.875
    endloop
  endfacet
  facet normal -0 0 1
    outer loop
      vertex 2.78115 -8.55951 0.875
      vertex 8.18895 -25.203 0.875
      vertex 4.5 -7.79423 0.875
    endloop
  endfacet
  facet normal 0 0 1
    outer loop
      vertex 2.78115 -8.55951 0.875
      vertex 2.77 -26.3548 0.875
      vertex 8.18895 -25.203 0.875
    endloop
  endfacet
  facet normal -0 0 1
    outer loop
      vertex 0.940756 -8.9507 0.875
      vertex 2.77 -26.3548 0.875
      vertex 2.78115 -8.55951 0.875
    endloop
  endfacet
  facet normal -0 0 1
    outer loop
      vertex -0.940756 -8.9507 0.875
      vertex 2.77 -26.3548 0.875
      vertex 0.940756 -8.9507 0.875
    endloop
  endfacet
  facet normal 0 0 1
    outer loop
      vertex -0.940756 -8.9507 0.875
      vertex -2.77 -26.3548 0.875
      vertex 2.77 -26.3548 0.875
    endloop
  endfacet
  facet normal 0 0 1
    outer loop
      vertex -2.78115 -8.55951 0.875
      vertex -2.77 -26.3548 0.875
      vertex -0.940756 -8.9507 0.875
    endloop
  endfacet
  facet normal 0 0 1
    outer loop
      vertex -8.18895 -25.203 0.875
      vertex -2.78115 -8.55951 0.875
      vertex -4.5 -7.79423 0.875
    endloop
  endfacet
  facet normal 0 0 1
    outer loop
      vertex -13.25 -22.9497 0.875
      vertex -4.5 -7.79423 0.875
      vertex -6.02217 -6.6883 0.875
    endloop
  endfacet
  facet normal 0 0 1
    outer loop
      vertex -17.732 -19.6933 0.875
      vertex -6.02217 -6.6883 0.875
      vertex -7.28115 -5.29007 0.875
    endloop
  endfacet
  facet normal 0 0 1
    outer loop
      vertex -2.78115 -8.55951 0.875
      vertex -8.18895 -25.203 0.875
      vertex -2.77 -26.3548 0.875
    endloop
  endfacet
  facet normal 0 0 1
    outer loop
      vertex -21.4389 -15.5763 0.875
      vertex -7.28115 -5.29007 0.875
      vertex -8.22191 -3.66063 0.875
    endloop
  endfacet
  facet normal 0 0 1
    outer loop
      vertex -24.209 -10.7785 0.875
      vertex -8.22191 -3.66063 0.875
      vertex -8.80333 -1.8712 0.875
    endloop
  endfacet
  facet normal 0 0 1
    outer loop
      vertex -25.9209 -5.50966 0.875
      vertex -8.80333 -1.8712 0.875
      vertex -9 0 0.875
    endloop
  endfacet
  facet normal -0 0 1
    outer loop
      vertex -24.209 10.7785 0.875
      vertex -8.22191 3.66063 0.875
      vertex -21.4389 15.5763 0.875
    endloop
  endfacet
  facet normal 0 0 1
    outer loop
      vertex -4.5 -7.79423 0.875
      vertex -13.25 -22.9497 0.875
      vertex -8.18895 -25.203 0.875
    endloop
  endfacet
  facet normal 0 0 1
    outer loop
      vertex -8.22191 3.66063 0.875
      vertex -24.209 10.7785 0.875
      vertex -8.80333 1.8712 0.875
    endloop
  endfacet
  facet normal 0 0 1
    outer loop
      vertex -6.02217 -6.6883 0.875
      vertex -17.732 -19.6933 0.875
      vertex -13.25 -22.9497 0.875
    endloop
  endfacet
  facet normal -0 0 1
    outer loop
      vertex -25.9209 5.50966 0.875
      vertex -8.80333 1.8712 0.875
      vertex -24.209 10.7785 0.875
    endloop
  endfacet
  facet normal 0 0 1
    outer loop
      vertex -7.28115 -5.29007 0.875
      vertex -21.4389 -15.5763 0.875
      vertex -17.732 -19.6933 0.875
    endloop
  endfacet
  facet normal 0 0 1
    outer loop
      vertex -8.80333 1.8712 0.875
      vertex -25.9209 5.50966 0.875
      vertex -9 0 0.875
    endloop
  endfacet
  facet normal 0 0 1
    outer loop
      vertex -8.22191 -3.66063 0.875
      vertex -24.209 -10.7785 0.875
      vertex -21.4389 -15.5763 0.875
    endloop
  endfacet
  facet normal 0 0 1
    outer loop
      vertex -26.5 0 0.875
      vertex -9 0 0.875
      vertex -25.9209 5.50966 0.875
    endloop
  endfacet
  facet normal 0 0 1
    outer loop
      vertex -8.80333 -1.8712 0.875
      vertex -25.9209 -5.50966 0.875
      vertex -24.209 -10.7785 0.875
    endloop
  endfacet
  facet normal 0 0 1
    outer loop
      vertex -9 0 0.875
      vertex -26.5 0 0.875
      vertex -25.9209 -5.50966 0.875
    endloop
  endfacet
  facet normal -0.207912 0.978148 0
    outer loop
      vertex -4.5 25.9871 -0.875
      vertex -8.18895 25.203 0.875
      vertex -4.5 25.9871 0.875
    endloop
  endfacet
  facet normal -0.207912 0.978148 0
    outer loop
      vertex -8.18895 25.203 0.875
      vertex -4.5 25.9871 -0.875
      vertex -8.18895 25.203 -0.875
    endloop
  endfacet
  facet normal 0.994522 -0.104529 0
    outer loop
      vertex 25.9209 -5.50966 0.875
      vertex 26.5 0 -0.875
      vertex 26.5 0 0.875
    endloop
  endfacet
  facet normal 0.994522 -0.104529 0
    outer loop
      vertex 26.5 0 -0.875
      vertex 25.9209 -5.50966 0.875
      vertex 25.9209 -5.50966 -0.875
    endloop
  endfacet
  facet normal 0 0 -1
    outer loop
      vertex 10.5 0 -0.875
      vertex 26.5 0 -0.875
      vertex 25.9209 -5.50966 -0.875
    endloop
  endfacet
  facet normal 0 0 -1
    outer loop
      vertex 10.2705 -2.18307 -0.875
      vertex 25.9209 -5.50966 -0.875
      vertex 24.209 -10.7785 -0.875
    endloop
  endfacet
  facet normal 0 0 -1
    outer loop
      vertex 26.5 0 -0.875
      vertex 10.5 0 -0.875
      vertex 25.9209 5.50966 -0.875
    endloop
  endfacet
  facet normal 0 0 -1
    outer loop
      vertex 9.59223 -4.27073 -0.875
      vertex 24.209 -10.7785 -0.875
      vertex 21.4389 -15.5763 -0.875
    endloop
  endfacet
  facet normal 0 0 -1
    outer loop
      vertex 10.2705 2.18307 -0.875
      vertex 25.9209 5.50966 -0.875
      vertex 10.5 0 -0.875
    endloop
  endfacet
  facet normal 0 0 -1
    outer loop
      vertex 8.49468 -6.17174 -0.875
      vertex 21.4389 -15.5763 -0.875
      vertex 17.732 -19.6933 -0.875
    endloop
  endfacet
  facet normal -0 0 -1
    outer loop
      vertex 25.9209 5.50966 -0.875
      vertex 10.2705 2.18307 -0.875
      vertex 24.209 10.7785 -0.875
    endloop
  endfacet
  facet normal 0 0 -1
    outer loop
      vertex 7.02587 -7.80302 -0.875
      vertex 17.732 -19.6933 -0.875
      vertex 13.25 -22.9497 -0.875
    endloop
  endfacet
  facet normal 0 0 -1
    outer loop
      vertex 9.59223 4.27073 -0.875
      vertex 24.209 10.7785 -0.875
      vertex 10.2705 2.18307 -0.875
    endloop
  endfacet
  facet normal -0 0 -1
    outer loop
      vertex 24.209 10.7785 -0.875
      vertex 9.59223 4.27073 -0.875
      vertex 21.4389 15.5763 -0.875
    endloop
  endfacet
  facet normal 0 0 -1
    outer loop
      vertex 25.9209 -5.50966 -0.875
      vertex 10.2705 -2.18307 -0.875
      vertex 10.5 0 -0.875
    endloop
  endfacet
  facet normal 0 0 -1
    outer loop
      vertex 24.209 -10.7785 -0.875
      vertex 9.59223 -4.27073 -0.875
      vertex 10.2705 -2.18307 -0.875
    endloop
  endfacet
  facet normal 0 0 -1
    outer loop
      vertex 21.4389 -15.5763 -0.875
      vertex 8.49468 -6.17174 -0.875
      vertex 9.59223 -4.27073 -0.875
    endloop
  endfacet
  facet normal 0 0 -1
    outer loop
      vertex 5.25 -9.09327 -0.875
      vertex 13.25 -22.9497 -0.875
      vertex 8.18895 -25.203 -0.875
    endloop
  endfacet
  facet normal 0 0 -1
    outer loop
      vertex 17.732 -19.6933 -0.875
      vertex 7.02587 -7.80302 -0.875
      vertex 8.49468 -6.17174 -0.875
    endloop
  endfacet
  facet normal 0 0 -1
    outer loop
      vertex 13.25 -22.9497 -0.875
      vertex 5.25 -9.09327 -0.875
      vertex 7.02587 -7.80302 -0.875
    endloop
  endfacet
  facet normal 0 0 -1
    outer loop
      vertex 8.18895 -25.203 -0.875
      vertex 3.24468 -9.98609 -0.875
      vertex 5.25 -9.09327 -0.875
    endloop
  endfacet
  facet normal 0 0 -1
    outer loop
      vertex 2.77 -26.3548 -0.875
      vertex 3.24468 -9.98609 -0.875
      vertex 8.18895 -25.203 -0.875
    endloop
  endfacet
  facet normal 0 0 -1
    outer loop
      vertex 2.77 -26.3548 -0.875
      vertex 1.09755 -10.4425 -0.875
      vertex 3.24468 -9.98609 -0.875
    endloop
  endfacet
  facet normal 0 0 -1
    outer loop
      vertex 2.77 -26.3548 -0.875
      vertex -1.09755 -10.4425 -0.875
      vertex 1.09755 -10.4425 -0.875
    endloop
  endfacet
  facet normal 0 0 -1
    outer loop
      vertex -2.77 -26.3548 -0.875
      vertex -1.09755 -10.4425 -0.875
      vertex 2.77 -26.3548 -0.875
    endloop
  endfacet
  facet normal 0 0 -1
    outer loop
      vertex -2.77 -26.3548 -0.875
      vertex -3.24468 -9.98609 -0.875
      vertex -1.09755 -10.4425 -0.875
    endloop
  endfacet
  facet normal 0 0 -1
    outer loop
      vertex -8.18895 -25.203 -0.875
      vertex -3.24468 -9.98609 -0.875
      vertex -2.77 -26.3548 -0.875
    endloop
  endfacet
  facet normal -0 0 -1
    outer loop
      vertex -3.24468 -9.98609 -0.875
      vertex -8.18895 -25.203 -0.875
      vertex -5.25 -9.09327 -0.875
    endloop
  endfacet
  facet normal 0 0 -1
    outer loop
      vertex -13.25 -22.9497 -0.875
      vertex -5.25 -9.09327 -0.875
      vertex -8.18895 -25.203 -0.875
    endloop
  endfacet
  facet normal -0 0 -1
    outer loop
      vertex -5.25 -9.09327 -0.875
      vertex -13.25 -22.9497 -0.875
      vertex -7.02587 -7.80302 -0.875
    endloop
  endfacet
  facet normal 0 0 -1
    outer loop
      vertex -17.732 -19.6933 -0.875
      vertex -7.02587 -7.80302 -0.875
      vertex -13.25 -22.9497 -0.875
    endloop
  endfacet
  facet normal -0 0 -1
    outer loop
      vertex -7.02587 -7.80302 -0.875
      vertex -17.732 -19.6933 -0.875
      vertex -8.49468 -6.17174 -0.875
    endloop
  endfacet
  facet normal 0 0 -1
    outer loop
      vertex -21.4389 -15.5763 -0.875
      vertex -8.49468 -6.17174 -0.875
      vertex -17.732 -19.6933 -0.875
    endloop
  endfacet
  facet normal -0 0 -1
    outer loop
      vertex -8.49468 -6.17174 -0.875
      vertex -21.4389 -15.5763 -0.875
      vertex -9.59223 -4.27073 -0.875
    endloop
  endfacet
  facet normal 0 0 -1
    outer loop
      vertex -24.209 -10.7785 -0.875
      vertex -9.59223 -4.27073 -0.875
      vertex -21.4389 -15.5763 -0.875
    endloop
  endfacet
  facet normal -0 0 -1
    outer loop
      vertex -9.59223 -4.27073 -0.875
      vertex -24.209 -10.7785 -0.875
      vertex -10.2705 -2.18307 -0.875
    endloop
  endfacet
  facet normal 0 0 -1
    outer loop
      vertex -10.5 0 -0.875
      vertex -17.732 19.6933 -0.875
      vertex -13.25 22.9497 -0.875
    endloop
  endfacet
  facet normal 0 0 -1
    outer loop
      vertex -25.9209 -5.50966 -0.875
      vertex -10.2705 -2.18307 -0.875
      vertex -24.209 -10.7785 -0.875
    endloop
  endfacet
  facet normal 0 0 -1
    outer loop
      vertex -10.5 0 -0.875
      vertex -21.4389 15.5763 -0.875
      vertex -17.732 19.6933 -0.875
    endloop
  endfacet
  facet normal -0 0 -1
    outer loop
      vertex -10.2705 -2.18307 -0.875
      vertex -25.9209 -5.50966 -0.875
      vertex -10.5 0 -0.875
    endloop
  endfacet
  facet normal 0 0 -1
    outer loop
      vertex -10.5 0 -0.875
      vertex -24.209 10.7785 -0.875
      vertex -21.4389 15.5763 -0.875
    endloop
  endfacet
  facet normal 0 0 -1
    outer loop
      vertex -26.5 0 -0.875
      vertex -10.5 0 -0.875
      vertex -25.9209 -5.50966 -0.875
    endloop
  endfacet
  facet normal 0 0 -1
    outer loop
      vertex -10.5 0 -0.875
      vertex -25.9209 5.50966 -0.875
      vertex -24.209 10.7785 -0.875
    endloop
  endfacet
  facet normal 0 0 -1
    outer loop
      vertex -10.5 0 -0.875
      vertex -26.5 0 -0.875
      vertex -25.9209 5.50966 -0.875
    endloop
  endfacet
  facet normal 0 0 -1
    outer loop
      vertex 8.49468 6.17174 -0.875
      vertex 21.4389 15.5763 -0.875
      vertex 9.59223 4.27073 -0.875
    endloop
  endfacet
  facet normal -0 0 -1
    outer loop
      vertex 21.4389 15.5763 -0.875
      vertex 8.49468 6.17174 -0.875
      vertex 17.732 19.6933 -0.875
    endloop
  endfacet
  facet normal 0 0 -1
    outer loop
      vertex 7.02587 7.80302 -0.875
      vertex 17.732 19.6933 -0.875
      vertex 8.49468 6.17174 -0.875
    endloop
  endfacet
  facet normal -0 0 -1
    outer loop
      vertex 17.732 19.6933 -0.875
      vertex 7.02587 7.80302 -0.875
      vertex 13.25 22.9497 -0.875
    endloop
  endfacet
  facet normal 0 0 -1
    outer loop
      vertex 5.25 9.09327 -0.875
      vertex 13.25 22.9497 -0.875
      vertex 7.02587 7.80302 -0.875
    endloop
  endfacet
  facet normal 0 0 -1
    outer loop
      vertex 4.5 9.42719 -0.875
      vertex 13.25 22.9497 -0.875
      vertex 5.25 9.09327 -0.875
    endloop
  endfacet
  facet normal -0 0 -1
    outer loop
      vertex 13.25 22.9497 -0.875
      vertex 4.5 9.42719 -0.875
      vertex 8.18895 25.203 -0.875
    endloop
  endfacet
  facet normal -0 0 -1
    outer loop
      vertex 8.18895 25.203 -0.875
      vertex 4.5 9.42719 -0.875
      vertex 4.5 25.9871 -0.875
    endloop
  endfacet
  facet normal 0 0 -1
    outer loop
      vertex -13.25 22.9497 -0.875
      vertex -4.5 9.42719 -0.875
      vertex -5.25 9.09327 -0.875
    endloop
  endfacet
  facet normal 0 0 -1
    outer loop
      vertex -13.25 22.9497 -0.875
      vertex -5.25 9.09327 -0.875
      vertex -7.02587 7.80302 -0.875
    endloop
  endfacet
  facet normal 0 0 -1
    outer loop
      vertex -4.5 9.42719 -0.875
      vertex -8.18895 25.203 -0.875
      vertex -4.5 25.9871 -0.875
    endloop
  endfacet
  facet normal 0 0 -1
    outer loop
      vertex -13.25 22.9497 -0.875
      vertex -7.02587 7.80302 -0.875
      vertex -8.49468 6.17174 -0.875
    endloop
  endfacet
  facet normal 0 0 -1
    outer loop
      vertex -13.25 22.9497 -0.875
      vertex -8.49468 6.17174 -0.875
      vertex -9.59223 4.27073 -0.875
    endloop
  endfacet
  facet normal 0 0 -1
    outer loop
      vertex -13.25 22.9497 -0.875
      vertex -9.59223 4.27073 -0.875
      vertex -10.2705 2.18307 -0.875
    endloop
  endfacet
  facet normal 0 0 -1
    outer loop
      vertex -13.25 22.9497 -0.875
      vertex -10.2705 2.18307 -0.875
      vertex -10.5 0 -0.875
    endloop
  endfacet
  facet normal 0 0 -1
    outer loop
      vertex -4.5 9.42719 -0.875
      vertex -13.25 22.9497 -0.875
      vertex -8.18895 25.203 -0.875
    endloop
  endfacet
  facet normal 0.866025 -0.5 0
    outer loop
      vertex 21.4389 -15.5763 0.875
      vertex 24.209 -10.7785 -0.875
      vertex 24.209 -10.7785 0.875
    endloop
  endfacet
  facet normal 0.866025 -0.5 0
    outer loop
      vertex 24.209 -10.7785 -0.875
      vertex 21.4389 -15.5763 0.875
      vertex 21.4389 -15.5763 -0.875
    endloop
  endfacet
  facet normal -0.866025 -0.5 0
    outer loop
      vertex -21.4389 -15.5763 -0.875
      vertex -24.209 -10.7785 0.875
      vertex -24.209 -10.7785 -0.875
    endloop
  endfacet
  facet normal -0.866025 -0.5 0
    outer loop
      vertex -24.209 -10.7785 0.875
      vertex -21.4389 -15.5763 -0.875
      vertex -21.4389 -15.5763 0.875
    endloop
  endfacet
  facet normal -0.743145 -0.669131 0
    outer loop
      vertex -17.732 -19.6933 -0.875
      vertex -21.4389 -15.5763 0.875
      vertex -21.4389 -15.5763 -0.875
    endloop
  endfacet
  facet normal -0.743145 -0.669131 0
    outer loop
      vertex -21.4389 -15.5763 0.875
      vertex -17.732 -19.6933 -0.875
      vertex -17.732 -19.6933 0.875
    endloop
  endfacet
  facet normal 0.587785 -0.809017 0
    outer loop
      vertex 13.25 -22.9497 -0.875
      vertex 17.732 -19.6933 0.875
      vertex 13.25 -22.9497 0.875
    endloop
  endfacet
  facet normal 0.587785 -0.809017 0
    outer loop
      vertex 17.732 -19.6933 0.875
      vertex 13.25 -22.9497 -0.875
      vertex 17.732 -19.6933 -0.875
    endloop
  endfacet
  facet normal -0.207912 -0.978148 0
    outer loop
      vertex -8.18895 -25.203 -0.875
      vertex -2.77 -26.3548 0.875
      vertex -8.18895 -25.203 0.875
    endloop
  endfacet
  facet normal -0.207912 -0.978148 -0
    outer loop
      vertex -2.77 -26.3548 0.875
      vertex -8.18895 -25.203 -0.875
      vertex -2.77 -26.3548 -0.875
    endloop
  endfacet
  facet normal -0.951057 -0.309017 0
    outer loop
      vertex -24.209 -10.7785 -0.875
      vertex -25.9209 -5.50966 0.875
      vertex -25.9209 -5.50966 -0.875
    endloop
  endfacet
  facet normal -0.951057 -0.309017 0
    outer loop
      vertex -25.9209 -5.50966 0.875
      vertex -24.209 -10.7785 -0.875
      vertex -24.209 -10.7785 0.875
    endloop
  endfacet
  facet normal -0.994522 -0.104529 0
    outer loop
      vertex -25.9209 -5.50966 -0.875
      vertex -26.5 0 0.875
      vertex -26.5 0 -0.875
    endloop
  endfacet
  facet normal -0.994522 -0.104529 0
    outer loop
      vertex -26.5 0 0.875
      vertex -25.9209 -5.50966 -0.875
      vertex -25.9209 -5.50966 0.875
    endloop
  endfacet
  facet normal 0.406737 -0.913545 0
    outer loop
      vertex 8.18895 -25.203 -0.875
      vertex 13.25 -22.9497 0.875
      vertex 8.18895 -25.203 0.875
    endloop
  endfacet
  facet normal 0.406737 -0.913545 0
    outer loop
      vertex 13.25 -22.9497 0.875
      vertex 8.18895 -25.203 -0.875
      vertex 13.25 -22.9497 -0.875
    endloop
  endfacet
  facet normal 0.207912 -0.978148 0
    outer loop
      vertex 2.77 -26.3548 -0.875
      vertex 8.18895 -25.203 0.875
      vertex 2.77 -26.3548 0.875
    endloop
  endfacet
  facet normal 0.207912 -0.978148 0
    outer loop
      vertex 8.18895 -25.203 0.875
      vertex 2.77 -26.3548 -0.875
      vertex 8.18895 -25.203 -0.875
    endloop
  endfacet
  facet normal 0.743145 -0.669131 0
    outer loop
      vertex 17.732 -19.6933 0.875
      vertex 21.4389 -15.5763 -0.875
      vertex 21.4389 -15.5763 0.875
    endloop
  endfacet
  facet normal 0.743145 -0.669131 0
    outer loop
      vertex 21.4389 -15.5763 -0.875
      vertex 17.732 -19.6933 0.875
      vertex 17.732 -19.6933 -0.875
    endloop
  endfacet
  facet normal -0.406737 -0.913545 0
    outer loop
      vertex -13.25 -22.9497 -0.875
      vertex -8.18895 -25.203 0.875
      vertex -13.25 -22.9497 0.875
    endloop
  endfacet
  facet normal -0.406737 -0.913545 -0
    outer loop
      vertex -8.18895 -25.203 0.875
      vertex -13.25 -22.9497 -0.875
      vertex -8.18895 -25.203 -0.875
    endloop
  endfacet
  facet normal -0.587785 -0.809017 0
    outer loop
      vertex -17.732 -19.6933 -0.875
      vertex -13.25 -22.9497 0.875
      vertex -17.732 -19.6933 0.875
    endloop
  endfacet
  facet normal -0.587785 -0.809017 -0
    outer loop
      vertex -13.25 -22.9497 0.875
      vertex -17.732 -19.6933 -0.875
      vertex -13.25 -22.9497 -0.875
    endloop
  endfacet
  facet normal -0.756851 -0.0795482 -0.648729
    outer loop
      vertex 10.2705 2.18307 -0.875
      vertex 10.5 0 -0.875
      vertex 9 0 0.875
    endloop
  endfacet
  facet normal -0.447316 0.615678 -0.648729
    outer loop
      vertex 7.02587 -7.80302 -0.875
      vertex 5.25 -9.09327 -0.875
      vertex 4.5 -7.79423 0.875
    endloop
  endfacet
  facet normal -0.447316 -0.615677 -0.648729
    outer loop
      vertex 7.02587 7.80302 -0.875
      vertex 6.02217 6.6883 0.875
      vertex 4.5 7.79423 0.875
    endloop
  endfacet
  facet normal -0.659062 -0.38051 -0.648729
    outer loop
      vertex 9.59223 4.27073 -0.875
      vertex 8.22191 3.66063 0.875
      vertex 7.28115 5.29007 0.875
    endloop
  endfacet
  facet normal -0.723772 -0.235168 -0.648729
    outer loop
      vertex 10.2705 2.18307 -0.875
      vertex 8.80333 1.8712 0.875
      vertex 8.22191 3.66063 0.875
    endloop
  endfacet
  facet normal -0.565548 0.509221 -0.648729
    outer loop
      vertex 7.28115 -5.29007 0.875
      vertex 7.02587 -7.80302 -0.875
      vertex 6.02217 -6.6883 0.875
    endloop
  endfacet
  facet normal 0.309534 -0.695227 -0.648728
    outer loop
      vertex -4.5 9.42719 -0.875
      vertex -4.5 8.93112 -0.343376
      vertex -5.25 9.09327 -0.875
    endloop
  endfacet
  facet normal -0.723772 -0.235168 -0.648729
    outer loop
      vertex 9.59223 4.27073 -0.875
      vertex 10.2705 2.18307 -0.875
      vertex 8.22191 3.66063 0.875
    endloop
  endfacet
  facet normal -0.75685 -0.0795486 -0.648729
    outer loop
      vertex 10.2705 2.18307 -0.875
      vertex 9 0 0.875
      vertex 8.80333 1.8712 0.875
    endloop
  endfacet
  facet normal 0.723772 0.235168 -0.648729
    outer loop
      vertex -8.22191 -3.66063 0.875
      vertex -9.59223 -4.27073 -0.875
      vertex -10.2705 -2.18307 -0.875
    endloop
  endfacet
  facet normal 0.659062 -0.38051 -0.648729
    outer loop
      vertex -7.28115 5.29007 0.875
      vertex -8.22191 3.66063 0.875
      vertex -9.59223 4.27073 -0.875
    endloop
  endfacet
  facet normal 0.447316 0.615678 -0.648729
    outer loop
      vertex -4.5 -7.79423 0.875
      vertex -5.25 -9.09327 -0.875
      vertex -7.02587 -7.80302 -0.875
    endloop
  endfacet
  facet normal 0.447316 0.615677 -0.648729
    outer loop
      vertex -6.02217 -6.6883 0.875
      vertex -4.5 -7.79423 0.875
      vertex -7.02587 -7.80302 -0.875
    endloop
  endfacet
  facet normal 0.158225 0.74439 -0.648729
    outer loop
      vertex -0.940756 -8.9507 0.875
      vertex -1.09755 -10.4425 -0.875
      vertex -3.24468 -9.98609 -0.875
    endloop
  endfacet
  facet normal -0.659062 0.38051 -0.648729
    outer loop
      vertex 8.22191 -3.66063 0.875
      vertex 9.59223 -4.27073 -0.875
      vertex 7.28115 -5.29007 0.875
    endloop
  endfacet
  facet normal -0.756851 0.0795482 -0.648729
    outer loop
      vertex 10.5 0 -0.875
      vertex 10.2705 -2.18307 -0.875
      vertex 9 0 0.875
    endloop
  endfacet
  facet normal 0.447316 -0.615678 -0.648729
    outer loop
      vertex -5.25 9.09327 -0.875
      vertex -4.5 7.79423 0.875
      vertex -7.02587 7.80302 -0.875
    endloop
  endfacet
  facet normal -0.659062 -0.38051 -0.648729
    outer loop
      vertex 8.49468 6.17174 -0.875
      vertex 9.59223 4.27073 -0.875
      vertex 7.28115 5.29007 0.875
    endloop
  endfacet
  facet normal 0.659062 0.38051 -0.648729
    outer loop
      vertex -7.28115 -5.29007 0.875
      vertex -8.49468 -6.17174 -0.875
      vertex -9.59223 -4.27073 -0.875
    endloop
  endfacet
  facet normal 0.756851 -0.0795482 -0.648729
    outer loop
      vertex -10.2705 2.18307 -0.875
      vertex -9 0 0.875
      vertex -10.5 0 -0.875
    endloop
  endfacet
  facet normal 0.723772 -0.235168 -0.648729
    outer loop
      vertex -8.22191 3.66063 0.875
      vertex -8.80333 1.8712 0.875
      vertex -10.2705 2.18307 -0.875
    endloop
  endfacet
  facet normal 0.447316 -0.615678 -0.648729
    outer loop
      vertex -4.5 7.79423 0.875
      vertex -6.02217 6.6883 0.875
      vertex -7.02587 7.80302 -0.875
    endloop
  endfacet
  facet normal 0.565548 -0.509221 -0.648729
    outer loop
      vertex -7.02587 7.80302 -0.875
      vertex -6.02217 6.6883 0.875
      vertex -7.28115 5.29007 0.875
    endloop
  endfacet
  facet normal 0.309534 0.695226 -0.648729
    outer loop
      vertex -2.78115 -8.55951 0.875
      vertex -3.24468 -9.98609 -0.875
      vertex -5.25 -9.09327 -0.875
    endloop
  endfacet
  facet normal 0.158225 0.744389 -0.648729
    outer loop
      vertex -2.78115 -8.55951 0.875
      vertex -0.940756 -8.9507 0.875
      vertex -3.24468 -9.98609 -0.875
    endloop
  endfacet
  facet normal -0.158225 0.744389 -0.648729
    outer loop
      vertex 2.78115 -8.55951 0.875
      vertex 3.24468 -9.98609 -0.875
      vertex 0.940756 -8.9507 0.875
    endloop
  endfacet
  facet normal -0.447316 0.615677 -0.648729
    outer loop
      vertex 6.02217 -6.6883 0.875
      vertex 7.02587 -7.80302 -0.875
      vertex 4.5 -7.79423 0.875
    endloop
  endfacet
  facet normal -0.659062 0.38051 -0.648729
    outer loop
      vertex 9.59223 -4.27073 -0.875
      vertex 8.49468 -6.17174 -0.875
      vertex 7.28115 -5.29007 0.875
    endloop
  endfacet
  facet normal -0.565548 0.509221 -0.648729
    outer loop
      vertex 7.28115 -5.29007 0.875
      vertex 8.49468 -6.17174 -0.875
      vertex 7.02587 -7.80302 -0.875
    endloop
  endfacet
  facet normal -0.723772 0.235168 -0.648729
    outer loop
      vertex 10.2705 -2.18307 -0.875
      vertex 9.59223 -4.27073 -0.875
      vertex 8.22191 -3.66063 0.875
    endloop
  endfacet
  facet normal -0.309535 -0.695226 -0.648729
    outer loop
      vertex 4.5 9.42719 -0.875
      vertex 5.25 9.09327 -0.875
      vertex 4.5 8.93112 -0.343375
    endloop
  endfacet
  facet normal -0.447316 -0.615678 -0.648729
    outer loop
      vertex 5.25 9.09327 -0.875
      vertex 7.02587 7.80302 -0.875
      vertex 4.5 7.79423 0.875
    endloop
  endfacet
  facet normal -0.565548 -0.509221 -0.648729
    outer loop
      vertex 8.49468 6.17174 -0.875
      vertex 7.28115 5.29007 0.875
      vertex 7.02587 7.80302 -0.875
    endloop
  endfacet
  facet normal -0.565548 -0.509221 -0.648729
    outer loop
      vertex 7.02587 7.80302 -0.875
      vertex 7.28115 5.29007 0.875
      vertex 6.02217 6.6883 0.875
    endloop
  endfacet
  facet normal 0.723772 0.235168 -0.648729
    outer loop
      vertex -8.80333 -1.8712 0.875
      vertex -8.22191 -3.66063 0.875
      vertex -10.2705 -2.18307 -0.875
    endloop
  endfacet
  facet normal 0.75685 0.0795486 -0.648729
    outer loop
      vertex -9 0 0.875
      vertex -8.80333 -1.8712 0.875
      vertex -10.2705 -2.18307 -0.875
    endloop
  endfacet
  facet normal 0.756851 0.0795482 -0.648729
    outer loop
      vertex -9 0 0.875
      vertex -10.2705 -2.18307 -0.875
      vertex -10.5 0 -0.875
    endloop
  endfacet
  facet normal 0.723772 -0.235168 -0.648729
    outer loop
      vertex -9.59223 4.27073 -0.875
      vertex -8.22191 3.66063 0.875
      vertex -10.2705 2.18307 -0.875
    endloop
  endfacet
  facet normal 0.309535 -0.695226 -0.648729
    outer loop
      vertex -4.5 7.79423 0.875
      vertex -4.5 8 0.65448
      vertex -4.03783 8 0.875
    endloop
  endfacet
  facet normal 0.309535 -0.695226 -0.648729
    outer loop
      vertex -4.5 8 0.65448
      vertex -5.25 9.09327 -0.875
      vertex -4.5 8.93112 -0.343376
    endloop
  endfacet
  facet normal 0.309535 -0.695226 -0.648729
    outer loop
      vertex -5.25 9.09327 -0.875
      vertex -4.5 8 0.65448
      vertex -4.5 7.79423 0.875
    endloop
  endfacet
  facet normal 0.659062 -0.38051 -0.648729
    outer loop
      vertex -8.49468 6.17174 -0.875
      vertex -7.28115 5.29007 0.875
      vertex -9.59223 4.27073 -0.875
    endloop
  endfacet
  facet normal 0.565548 -0.509221 -0.648729
    outer loop
      vertex -7.02587 7.80302 -0.875
      vertex -7.28115 5.29007 0.875
      vertex -8.49468 6.17174 -0.875
    endloop
  endfacet
  facet normal 0.309534 0.695226 -0.648729
    outer loop
      vertex -4.5 -7.79423 0.875
      vertex -2.78115 -8.55951 0.875
      vertex -5.25 -9.09327 -0.875
    endloop
  endfacet
  facet normal -0.158225 0.74439 -0.648729
    outer loop
      vertex 3.24468 -9.98609 -0.875
      vertex 1.09755 -10.4425 -0.875
      vertex 0.940756 -8.9507 0.875
    endloop
  endfacet
  facet normal 0 0.76102 -0.648729
    outer loop
      vertex 1.09755 -10.4425 -0.875
      vertex -0.940756 -8.9507 0.875
      vertex 0.940756 -8.9507 0.875
    endloop
  endfacet
  facet normal 0 0.76102 -0.648729
    outer loop
      vertex -0.940756 -8.9507 0.875
      vertex 1.09755 -10.4425 -0.875
      vertex -1.09755 -10.4425 -0.875
    endloop
  endfacet
  facet normal -0.309534 0.695226 -0.648729
    outer loop
      vertex 5.25 -9.09327 -0.875
      vertex 3.24468 -9.98609 -0.875
      vertex 2.78115 -8.55951 0.875
    endloop
  endfacet
  facet normal -0.309534 0.695226 -0.648729
    outer loop
      vertex 4.5 -7.79423 0.875
      vertex 5.25 -9.09327 -0.875
      vertex 2.78115 -8.55951 0.875
    endloop
  endfacet
  facet normal -0.723772 0.235168 -0.648729
    outer loop
      vertex 8.80333 -1.8712 0.875
      vertex 10.2705 -2.18307 -0.875
      vertex 8.22191 -3.66063 0.875
    endloop
  endfacet
  facet normal -0.75685 0.0795486 -0.648729
    outer loop
      vertex 9 0 0.875
      vertex 10.2705 -2.18307 -0.875
      vertex 8.80333 -1.8712 0.875
    endloop
  endfacet
  facet normal -0.309534 -0.695226 -0.648729
    outer loop
      vertex 4.5 8 0.65448
      vertex 4.5 7.79423 0.875
      vertex 4.03783 8 0.875
    endloop
  endfacet
  facet normal -0.309535 -0.695226 -0.648729
    outer loop
      vertex 5.25 9.09327 -0.875
      vertex 4.5 8 0.65448
      vertex 4.5 8.93112 -0.343375
    endloop
  endfacet
  facet normal -0.309534 -0.695226 -0.648729
    outer loop
      vertex 4.5 8 0.65448
      vertex 5.25 9.09327 -0.875
      vertex 4.5 7.79423 0.875
    endloop
  endfacet
  facet normal 0.565548 0.509221 -0.648729
    outer loop
      vertex -7.28115 -5.29007 0.875
      vertex -7.02587 -7.80302 -0.875
      vertex -8.49468 -6.17174 -0.875
    endloop
  endfacet
  facet normal 0.565548 0.509221 -0.648729
    outer loop
      vertex -6.02217 -6.6883 0.875
      vertex -7.02587 -7.80302 -0.875
      vertex -7.28115 -5.29007 0.875
    endloop
  endfacet
  facet normal 0.75685 -0.0795486 -0.648729
    outer loop
      vertex -8.80333 1.8712 0.875
      vertex -9 0 0.875
      vertex -10.2705 2.18307 -0.875
    endloop
  endfacet
  facet normal 0.659062 0.38051 -0.648729
    outer loop
      vertex -8.22191 -3.66063 0.875
      vertex -7.28115 -5.29007 0.875
      vertex -9.59223 -4.27073 -0.875
    endloop
  endfacet
  facet normal 1 0 0
    outer loop
      vertex -4.5 25.9871 0.875
      vertex -4.5 9.42719 -0.875
      vertex -4.5 25.9871 -0.875
    endloop
  endfacet
  facet normal 1 0 0
    outer loop
      vertex -4.5 25.9871 0.875
      vertex -4.5 8.93112 -0.343376
      vertex -4.5 9.42719 -0.875
    endloop
  endfacet
  facet normal 1 -0 0
    outer loop
      vertex -4.5 8 0.875
      vertex -4.5 8.93112 -0.343376
      vertex -4.5 25.9871 0.875
    endloop
  endfacet
  facet normal 1 0 0
    outer loop
      vertex -4.5 8.93112 -0.343376
      vertex -4.5 8 0.875
      vertex -4.5 8 0.65448
    endloop
  endfacet
  facet normal -1 0 0
    outer loop
      vertex 4.5 9.42719 -0.875
      vertex 4.5 25.9871 0.875
      vertex 4.5 25.9871 -0.875
    endloop
  endfacet
  facet normal -1 0 0
    outer loop
      vertex 4.5 8.93112 -0.343375
      vertex 4.5 25.9871 0.875
      vertex 4.5 9.42719 -0.875
    endloop
  endfacet
  facet normal -1 0 0
    outer loop
      vertex 4.5 8 0.875
      vertex 4.5 8.93112 -0.343375
      vertex 4.5 8 0.65448
    endloop
  endfacet
  facet normal -1 0 0
    outer loop
      vertex 4.5 8.93112 -0.343375
      vertex 4.5 8 0.875
      vertex 4.5 25.9871 0.875
    endloop
  endfacet
  facet normal -0 1 0
    outer loop
      vertex -4.5 8 0.875
      vertex -4.03783 8 0.875
      vertex -4.5 8 0.65448
    endloop
  endfacet
  facet normal 0 1 0
    outer loop
      vertex 4.5 8 0.875
      vertex 4.5 8 0.65448
      vertex 4.03783 8 0.875
    endloop
  endfacet
endsolid OpenSCAD_Model
