solid OpenSCAD_Model
  facet normal -1 0 0
    outer loop
      vertex -16 -20.5 -1.5
      vertex -16 -9.74229 1.5
      vertex -16 -9.74229 -1.5
    endloop
  endfacet
  facet normal -1 -0 0
    outer loop
      vertex -16 -9.74229 1.5
      vertex -16 -20.5 -1.5
      vertex -16 -20.5 1.5
    endloop
  endfacet
  facet normal -1 0 0
    outer loop
      vertex -16 9.74229 -1.5
      vertex -16 20.5 1.5
      vertex -16 20.5 -1.5
    endloop
  endfacet
  facet normal -1 -0 0
    outer loop
      vertex -16 20.5 1.5
      vertex -16 9.74229 -1.5
      vertex -16 9.74229 1.5
    endloop
  endfacet
  facet normal 0 0 1
    outer loop
      vertex -9.13545 14.4326 1.5
      vertex -12.9547 9.94522 1.5
      vertex -10.9098 9.51056 1.5
    endloop
  endfacet
  facet normal 0 0 1
    outer loop
      vertex -13 18.5 1.5
      vertex -10 18.5 1.5
      vertex -9.78979 20.5 1.5
    endloop
  endfacet
  facet normal 0 0 1
    outer loop
      vertex -9.78148 16.4209 1.5
      vertex -13 18.5 1.5
      vertex -13.691 17.5489 1.5
    endloop
  endfacet
  facet normal 0 0 1
    outer loop
      vertex -9.78979 20.5 1.5
      vertex -13.691 19.4511 1.5
      vertex -13 18.5 1.5
    endloop
  endfacet
  facet normal 0 0 1
    outer loop
      vertex -16 20.5 1.5
      vertex -14.809 17.9122 1.5
      vertex -14.809 19.0878 1.5
    endloop
  endfacet
  facet normal -0 0 1
    outer loop
      vertex -16 20.5 1.5
      vertex -13.691 19.4511 1.5
      vertex -9.78979 20.5 1.5
    endloop
  endfacet
  facet normal 0 0 1
    outer loop
      vertex -16 20.5 1.5
      vertex -14.809 19.0878 1.5
      vertex -13.691 19.4511 1.5
    endloop
  endfacet
  facet normal 0 0 1
    outer loop
      vertex -14.809 17.9122 1.5
      vertex -16 20.5 1.5
      vertex -16 9.74229 1.5
    endloop
  endfacet
  facet normal 0 0 1
    outer loop
      vertex -14.809 17.9122 1.5
      vertex -16 9.74229 1.5
      vertex -15.0453 9.94522 1.5
    endloop
  endfacet
  facet normal -0 0 1
    outer loop
      vertex -4.86454 -4.06737 1.5
      vertex -1.04528 -8.55478 1.5
      vertex -4.21852 -2.07912 1.5
    endloop
  endfacet
  facet normal 0 0 1
    outer loop
      vertex -1.04528 -8.55478 1.5
      vertex -4.86454 -4.06737 1.5
      vertex -3.09017 -8.98943 1.5
    endloop
  endfacet
  facet normal -0 0 1
    outer loop
      vertex -5.90983 -5.87785 1.5
      vertex -3.09017 -8.98943 1.5
      vertex -4.86454 -4.06737 1.5
    endloop
  endfacet
  facet normal 0 0 1
    outer loop
      vertex -3.09017 -8.98943 1.5
      vertex -5.90983 -5.87785 1.5
      vertex -5 -9.83975 1.5
    endloop
  endfacet
  facet normal -0 0 1
    outer loop
      vertex -7.30869 -7.43145 1.5
      vertex -5 -9.83975 1.5
      vertex -5.90983 -5.87785 1.5
    endloop
  endfacet
  facet normal 0 0 1
    outer loop
      vertex -5 -9.83975 1.5
      vertex -7.30869 -7.43145 1.5
      vertex -6.69131 -11.0686 1.5
    endloop
  endfacet
  facet normal -0 0 1
    outer loop
      vertex -9 -8.66025 1.5
      vertex -6.69131 -11.0686 1.5
      vertex -7.30869 -7.43145 1.5
    endloop
  endfacet
  facet normal 0 0 1
    outer loop
      vertex -6.69131 -11.0686 1.5
      vertex -9 -8.66025 1.5
      vertex -8.09017 -12.6221 1.5
    endloop
  endfacet
  facet normal -0 0 1
    outer loop
      vertex -10.9098 -9.51056 1.5
      vertex -8.09017 -12.6221 1.5
      vertex -9 -8.66025 1.5
    endloop
  endfacet
  facet normal 0 0 1
    outer loop
      vertex -8.09017 -12.6221 1.5
      vertex -10.9098 -9.51056 1.5
      vertex -9.13545 -14.4326 1.5
    endloop
  endfacet
  facet normal -0 0 1
    outer loop
      vertex -12.9547 -9.94522 1.5
      vertex -9.13545 -14.4326 1.5
      vertex -10.9098 -9.51056 1.5
    endloop
  endfacet
  facet normal 0 0 1
    outer loop
      vertex -13.691 -17.5489 1.5
      vertex -9.13545 -14.4326 1.5
      vertex -12.9547 -9.94522 1.5
    endloop
  endfacet
  facet normal -0 0 1
    outer loop
      vertex 15 18.5 1.5
      vertex 16 9.74229 1.5
      vertex 16 20.5 1.5
    endloop
  endfacet
  facet normal -0 0 1
    outer loop
      vertex 14.309 17.5489 1.5
      vertex 16 9.74229 1.5
      vertex 15 18.5 1.5
    endloop
  endfacet
  facet normal 0 0 1
    outer loop
      vertex 16 20.5 1.5
      vertex 14.309 19.4511 1.5
      vertex 15 18.5 1.5
    endloop
  endfacet
  facet normal -0 0 1
    outer loop
      vertex 9.78979 20.5 1.5
      vertex 14.309 19.4511 1.5
      vertex 16 20.5 1.5
    endloop
  endfacet
  facet normal -0 0 1
    outer loop
      vertex 10 18.5 1.5
      vertex 13.191 17.9122 1.5
      vertex 13.191 19.0878 1.5
    endloop
  endfacet
  facet normal 0 0 1
    outer loop
      vertex 9.13545 14.4326 1.5
      vertex 13.191 17.9122 1.5
      vertex 9.78148 16.4209 1.5
    endloop
  endfacet
  facet normal 0 0 1
    outer loop
      vertex 13.191 17.9122 1.5
      vertex 10 18.5 1.5
      vertex 9.78148 16.4209 1.5
    endloop
  endfacet
  facet normal 0 0 1
    outer loop
      vertex 14.309 19.4511 1.5
      vertex 9.78979 20.5 1.5
      vertex 13.191 19.0878 1.5
    endloop
  endfacet
  facet normal 0 0 1
    outer loop
      vertex 13.191 19.0878 1.5
      vertex 9.78979 20.5 1.5
      vertex 10 18.5 1.5
    endloop
  endfacet
  facet normal 0 0 1
    outer loop
      vertex 16 9.74229 1.5
      vertex 14.309 17.5489 1.5
      vertex 15.0453 9.94522 1.5
    endloop
  endfacet
  facet normal 0 0 1
    outer loop
      vertex 12.9547 9.94522 1.5
      vertex 14.309 17.5489 1.5
      vertex 13.191 17.9122 1.5
    endloop
  endfacet
  facet normal 0 0 1
    outer loop
      vertex 14.309 17.5489 1.5
      vertex 12.9547 9.94522 1.5
      vertex 15.0453 9.94522 1.5
    endloop
  endfacet
  facet normal 0 0 1
    outer loop
      vertex 13.191 17.9122 1.5
      vertex 9.13545 14.4326 1.5
      vertex 12.9547 9.94522 1.5
    endloop
  endfacet
  facet normal 0 0 1
    outer loop
      vertex 12.9547 9.94522 1.5
      vertex 9.13545 14.4326 1.5
      vertex 10.9098 9.51056 1.5
    endloop
  endfacet
  facet normal -0 0 1
    outer loop
      vertex 8.09017 12.6221 1.5
      vertex 10.9098 9.51056 1.5
      vertex 9.13545 14.4326 1.5
    endloop
  endfacet
  facet normal 0 0 1
    outer loop
      vertex 10.9098 9.51056 1.5
      vertex 8.09017 12.6221 1.5
      vertex 9 8.66025 1.5
    endloop
  endfacet
  facet normal -0 0 1
    outer loop
      vertex 6.69131 11.0686 1.5
      vertex 9 8.66025 1.5
      vertex 8.09017 12.6221 1.5
    endloop
  endfacet
  facet normal 0 0 1
    outer loop
      vertex 9 8.66025 1.5
      vertex 6.69131 11.0686 1.5
      vertex 7.30869 7.43145 1.5
    endloop
  endfacet
  facet normal -0 0 1
    outer loop
      vertex 5 9.83975 1.5
      vertex 7.30869 7.43145 1.5
      vertex 6.69131 11.0686 1.5
    endloop
  endfacet
  facet normal 0 0 1
    outer loop
      vertex 7.30869 7.43145 1.5
      vertex 5 9.83975 1.5
      vertex 5.90983 5.87785 1.5
    endloop
  endfacet
  facet normal -0 0 1
    outer loop
      vertex 3.09017 8.98943 1.5
      vertex 5.90983 5.87785 1.5
      vertex 5 9.83975 1.5
    endloop
  endfacet
  facet normal 0 0 1
    outer loop
      vertex 5.90983 5.87785 1.5
      vertex 3.09017 8.98943 1.5
      vertex 4.86454 4.06737 1.5
    endloop
  endfacet
  facet normal -0 0 1
    outer loop
      vertex 1.04528 8.55478 1.5
      vertex 4.86454 4.06737 1.5
      vertex 3.09017 8.98943 1.5
    endloop
  endfacet
  facet normal 0 0 1
    outer loop
      vertex 4.86454 4.06737 1.5
      vertex 1.04528 8.55478 1.5
      vertex 4.21852 2.07912 1.5
    endloop
  endfacet
  facet normal 0 0 1
    outer loop
      vertex 13.191 -17.9122 1.5
      vertex 9.78148 -16.4209 1.5
      vertex 10 -18.5 1.5
    endloop
  endfacet
  facet normal 0 0 1
    outer loop
      vertex 12.9547 -9.94522 1.5
      vertex 9.13545 -14.4326 1.5
      vertex 9.78148 -16.4209 1.5
    endloop
  endfacet
  facet normal 0 0 1
    outer loop
      vertex 8.09017 -12.6221 1.5
      vertex 10.9098 -9.51056 1.5
      vertex 9 -8.66025 1.5
    endloop
  endfacet
  facet normal 0 0 1
    outer loop
      vertex 10.9098 -9.51056 1.5
      vertex 8.09017 -12.6221 1.5
      vertex 9.13545 -14.4326 1.5
    endloop
  endfacet
  facet normal 0 0 1
    outer loop
      vertex 6.69131 -11.0686 1.5
      vertex 9 -8.66025 1.5
      vertex 7.30869 -7.43145 1.5
    endloop
  endfacet
  facet normal 0 0 1
    outer loop
      vertex 9 -8.66025 1.5
      vertex 6.69131 -11.0686 1.5
      vertex 8.09017 -12.6221 1.5
    endloop
  endfacet
  facet normal 0 0 1
    outer loop
      vertex 5 -9.83975 1.5
      vertex 7.30869 -7.43145 1.5
      vertex 5.90983 -5.87785 1.5
    endloop
  endfacet
  facet normal 0 0 1
    outer loop
      vertex 7.30869 -7.43145 1.5
      vertex 5 -9.83975 1.5
      vertex 6.69131 -11.0686 1.5
    endloop
  endfacet
  facet normal 0 0 1
    outer loop
      vertex 3.09017 -8.98943 1.5
      vertex 5.90983 -5.87785 1.5
      vertex 4.86454 -4.06737 1.5
    endloop
  endfacet
  facet normal 0 0 1
    outer loop
      vertex 1.04528 -8.55478 1.5
      vertex 4.86454 -4.06737 1.5
      vertex 4.21852 -2.07912 1.5
    endloop
  endfacet
  facet normal -0 0 1
    outer loop
      vertex -4 0 1.5
      vertex 4.21852 -2.07912 1.5
      vertex 4 0 1.5
    endloop
  endfacet
  facet normal 0 0 1
    outer loop
      vertex 5.90983 -5.87785 1.5
      vertex 3.09017 -8.98943 1.5
      vertex 5 -9.83975 1.5
    endloop
  endfacet
  facet normal 0 0 1
    outer loop
      vertex -4.21852 2.07912 1.5
      vertex 4.21852 2.07912 1.5
      vertex 1.04528 8.55478 1.5
    endloop
  endfacet
  facet normal 0 0 1
    outer loop
      vertex 4.21852 2.07912 1.5
      vertex -4.21852 2.07912 1.5
      vertex 4 0 1.5
    endloop
  endfacet
  facet normal 0 0 1
    outer loop
      vertex -4.21852 -2.07912 1.5
      vertex 4.21852 -2.07912 1.5
      vertex -4 0 1.5
    endloop
  endfacet
  facet normal 0 0 1
    outer loop
      vertex -4.21852 2.07912 1.5
      vertex 1.04528 8.55478 1.5
      vertex -1.04528 8.55478 1.5
    endloop
  endfacet
  facet normal 0 0 1
    outer loop
      vertex 4.86454 -4.06737 1.5
      vertex 1.04528 -8.55478 1.5
      vertex 3.09017 -8.98943 1.5
    endloop
  endfacet
  facet normal 0 0 1
    outer loop
      vertex -4.86454 4.06737 1.5
      vertex -1.04528 8.55478 1.5
      vertex -3.09017 8.98943 1.5
    endloop
  endfacet
  facet normal 0 0 1
    outer loop
      vertex 4.21852 -2.07912 1.5
      vertex -1.04528 -8.55478 1.5
      vertex 1.04528 -8.55478 1.5
    endloop
  endfacet
  facet normal 0 0 1
    outer loop
      vertex 4.21852 -2.07912 1.5
      vertex -4.21852 -2.07912 1.5
      vertex -1.04528 -8.55478 1.5
    endloop
  endfacet
  facet normal 0 0 1
    outer loop
      vertex 4 0 1.5
      vertex -4.21852 2.07912 1.5
      vertex -4 0 1.5
    endloop
  endfacet
  facet normal 0 0 1
    outer loop
      vertex -1.04528 8.55478 1.5
      vertex -4.86454 4.06737 1.5
      vertex -4.21852 2.07912 1.5
    endloop
  endfacet
  facet normal 0 0 1
    outer loop
      vertex -5.90983 5.87785 1.5
      vertex -3.09017 8.98943 1.5
      vertex -5 9.83975 1.5
    endloop
  endfacet
  facet normal 0 0 1
    outer loop
      vertex -3.09017 8.98943 1.5
      vertex -5.90983 5.87785 1.5
      vertex -4.86454 4.06737 1.5
    endloop
  endfacet
  facet normal 0 0 1
    outer loop
      vertex -7.30869 7.43145 1.5
      vertex -5 9.83975 1.5
      vertex -6.69131 11.0686 1.5
    endloop
  endfacet
  facet normal 0 0 1
    outer loop
      vertex -5 9.83975 1.5
      vertex -7.30869 7.43145 1.5
      vertex -5.90983 5.87785 1.5
    endloop
  endfacet
  facet normal 0 0 1
    outer loop
      vertex -9 8.66025 1.5
      vertex -6.69131 11.0686 1.5
      vertex -8.09017 12.6221 1.5
    endloop
  endfacet
  facet normal 0 0 1
    outer loop
      vertex -6.69131 11.0686 1.5
      vertex -9 8.66025 1.5
      vertex -7.30869 7.43145 1.5
    endloop
  endfacet
  facet normal 0 0 1
    outer loop
      vertex -10.9098 9.51056 1.5
      vertex -8.09017 12.6221 1.5
      vertex -9.13545 14.4326 1.5
    endloop
  endfacet
  facet normal 0 0 1
    outer loop
      vertex -12.9547 9.94522 1.5
      vertex -9.13545 14.4326 1.5
      vertex -9.78148 16.4209 1.5
    endloop
  endfacet
  facet normal -0 0 1
    outer loop
      vertex -13 18.5 1.5
      vertex -9.78148 16.4209 1.5
      vertex -10 18.5 1.5
    endloop
  endfacet
  facet normal 0 0 1
    outer loop
      vertex -8.09017 12.6221 1.5
      vertex -10.9098 9.51056 1.5
      vertex -9 8.66025 1.5
    endloop
  endfacet
  facet normal 0 0 1
    outer loop
      vertex -9.13545 -14.4326 1.5
      vertex -13.691 -17.5489 1.5
      vertex -9.78148 -16.4209 1.5
    endloop
  endfacet
  facet normal 0 -0 1
    outer loop
      vertex -13 -18.5 1.5
      vertex -9.78148 -16.4209 1.5
      vertex -13.691 -17.5489 1.5
    endloop
  endfacet
  facet normal 0 0 1
    outer loop
      vertex -10 -18.5 1.5
      vertex -13 -18.5 1.5
      vertex -9.78979 -20.5 1.5
    endloop
  endfacet
  facet normal -0 0 1
    outer loop
      vertex -13.691 -19.4511 1.5
      vertex -9.78979 -20.5 1.5
      vertex -13 -18.5 1.5
    endloop
  endfacet
  facet normal 0 0 1
    outer loop
      vertex -16 -20.5 1.5
      vertex -14.809 -17.9122 1.5
      vertex -16 -9.74229 1.5
    endloop
  endfacet
  facet normal 0 0 1
    outer loop
      vertex -13.691 -19.4511 1.5
      vertex -16 -20.5 1.5
      vertex -9.78979 -20.5 1.5
    endloop
  endfacet
  facet normal 0 0 1
    outer loop
      vertex -14.809 -19.0878 1.5
      vertex -16 -20.5 1.5
      vertex -13.691 -19.4511 1.5
    endloop
  endfacet
  facet normal 0 0 1
    outer loop
      vertex -14.809 -17.9122 1.5
      vertex -16 -20.5 1.5
      vertex -14.809 -19.0878 1.5
    endloop
  endfacet
  facet normal 0 0 1
    outer loop
      vertex -9.78148 -16.4209 1.5
      vertex -13 -18.5 1.5
      vertex -10 -18.5 1.5
    endloop
  endfacet
  facet normal -0 0 1
    outer loop
      vertex -15.0453 -9.94522 1.5
      vertex -13.691 -17.5489 1.5
      vertex -12.9547 -9.94522 1.5
    endloop
  endfacet
  facet normal 0 0 1
    outer loop
      vertex -16 -9.74229 1.5
      vertex -14.809 -17.9122 1.5
      vertex -15.0453 -9.94522 1.5
    endloop
  endfacet
  facet normal 0 0 1
    outer loop
      vertex -13.691 -17.5489 1.5
      vertex -15.0453 -9.94522 1.5
      vertex -14.809 -17.9122 1.5
    endloop
  endfacet
  facet normal 0 0 1
    outer loop
      vertex -9.78148 16.4209 1.5
      vertex -13.691 17.5489 1.5
      vertex -12.9547 9.94522 1.5
    endloop
  endfacet
  facet normal 0 0 1
    outer loop
      vertex -15.0453 9.94522 1.5
      vertex -13.691 17.5489 1.5
      vertex -14.809 17.9122 1.5
    endloop
  endfacet
  facet normal 0 0 1
    outer loop
      vertex -13.691 17.5489 1.5
      vertex -15.0453 9.94522 1.5
      vertex -12.9547 9.94522 1.5
    endloop
  endfacet
  facet normal 0 0 1
    outer loop
      vertex 16 -9.74229 1.5
      vertex 14.309 -17.5489 1.5
      vertex 15 -18.5 1.5
    endloop
  endfacet
  facet normal -0 0 1
    outer loop
      vertex 12.9547 -9.94522 1.5
      vertex 14.309 -17.5489 1.5
      vertex 15.0453 -9.94522 1.5
    endloop
  endfacet
  facet normal 0 0 1
    outer loop
      vertex 9.13545 -14.4326 1.5
      vertex 12.9547 -9.94522 1.5
      vertex 10.9098 -9.51056 1.5
    endloop
  endfacet
  facet normal -0 0 1
    outer loop
      vertex 9.78148 -16.4209 1.5
      vertex 14.309 -17.5489 1.5
      vertex 12.9547 -9.94522 1.5
    endloop
  endfacet
  facet normal 0 0 1
    outer loop
      vertex 14.309 -17.5489 1.5
      vertex 16 -9.74229 1.5
      vertex 15.0453 -9.94522 1.5
    endloop
  endfacet
  facet normal 0 0 1
    outer loop
      vertex 16 -9.74229 1.5
      vertex 15 -18.5 1.5
      vertex 16 -20.5 1.5
    endloop
  endfacet
  facet normal -0 0 1
    outer loop
      vertex 14.309 -19.4511 1.5
      vertex 16 -20.5 1.5
      vertex 15 -18.5 1.5
    endloop
  endfacet
  facet normal 0 0 1
    outer loop
      vertex 9.78979 -20.5 1.5
      vertex 14.309 -19.4511 1.5
      vertex 13.191 -19.0878 1.5
    endloop
  endfacet
  facet normal 0 0 1
    outer loop
      vertex 14.309 -17.5489 1.5
      vertex 9.78148 -16.4209 1.5
      vertex 13.191 -17.9122 1.5
    endloop
  endfacet
  facet normal 0 0 1
    outer loop
      vertex 13.191 -17.9122 1.5
      vertex 10 -18.5 1.5
      vertex 13.191 -19.0878 1.5
    endloop
  endfacet
  facet normal 0 0 1
    outer loop
      vertex 9.78979 -20.5 1.5
      vertex 13.191 -19.0878 1.5
      vertex 10 -18.5 1.5
    endloop
  endfacet
  facet normal 0 0 1
    outer loop
      vertex 14.309 -19.4511 1.5
      vertex 9.78979 -20.5 1.5
      vertex 16 -20.5 1.5
    endloop
  endfacet
  facet normal 1 -0 0
    outer loop
      vertex 16 -20.5 1.5
      vertex 16 -9.74229 -1.5
      vertex 16 -9.74229 1.5
    endloop
  endfacet
  facet normal 1 0 0
    outer loop
      vertex 16 -9.74229 -1.5
      vertex 16 -20.5 1.5
      vertex 16 -20.5 -1.5
    endloop
  endfacet
  facet normal 1 -0 0
    outer loop
      vertex 16 9.74229 1.5
      vertex 16 20.5 -1.5
      vertex 16 20.5 1.5
    endloop
  endfacet
  facet normal 1 0 0
    outer loop
      vertex 16 20.5 -1.5
      vertex 16 9.74229 1.5
      vertex 16 9.74229 -1.5
    endloop
  endfacet
  facet normal 0 1 -0
    outer loop
      vertex 16 20.5 -1.5
      vertex 9.78979 20.5 1.5
      vertex 16 20.5 1.5
    endloop
  endfacet
  facet normal 0 1 0
    outer loop
      vertex 9.78979 20.5 1.5
      vertex 16 20.5 -1.5
      vertex 9.78979 20.5 -1.5
    endloop
  endfacet
  facet normal 0 1 -0
    outer loop
      vertex -9.78979 20.5 -1.5
      vertex -16 20.5 1.5
      vertex -9.78979 20.5 1.5
    endloop
  endfacet
  facet normal 0 1 0
    outer loop
      vertex -16 20.5 1.5
      vertex -9.78979 20.5 -1.5
      vertex -16 20.5 -1.5
    endloop
  endfacet
  facet normal 0 0 -1
    outer loop
      vertex -9.13545 -14.4326 -1.5
      vertex -12.9547 -9.94522 -1.5
      vertex -10.9098 -9.51056 -1.5
    endloop
  endfacet
  facet normal 0 0 -1
    outer loop
      vertex -16 -20.5 -1.5
      vertex -10 -18.5 -1.5
      vertex -9.78979 -20.5 -1.5
    endloop
  endfacet
  facet normal -0 0 -1
    outer loop
      vertex -9.78148 -16.4209 -1.5
      vertex -16 -20.5 -1.5
      vertex -15.0453 -9.94522 -1.5
    endloop
  endfacet
  facet normal 0 0 -1
    outer loop
      vertex -9.78148 -16.4209 -1.5
      vertex -15.0453 -9.94522 -1.5
      vertex -12.9547 -9.94522 -1.5
    endloop
  endfacet
  facet normal -0 0 -1
    outer loop
      vertex -15.0453 -9.94522 -1.5
      vertex -16 -20.5 -1.5
      vertex -16 -9.74229 -1.5
    endloop
  endfacet
  facet normal 0 0 -1
    outer loop
      vertex -4.86454 4.06737 -1.5
      vertex -1.04528 8.55478 -1.5
      vertex -4.21852 2.07912 -1.5
    endloop
  endfacet
  facet normal -0 0 -1
    outer loop
      vertex -1.04528 8.55478 -1.5
      vertex -4.86454 4.06737 -1.5
      vertex -3.09017 8.98943 -1.5
    endloop
  endfacet
  facet normal 0 0 -1
    outer loop
      vertex -5.90983 5.87785 -1.5
      vertex -3.09017 8.98943 -1.5
      vertex -4.86454 4.06737 -1.5
    endloop
  endfacet
  facet normal -0 0 -1
    outer loop
      vertex -3.09017 8.98943 -1.5
      vertex -5.90983 5.87785 -1.5
      vertex -5 9.83975 -1.5
    endloop
  endfacet
  facet normal 0 0 -1
    outer loop
      vertex -7.30869 7.43145 -1.5
      vertex -5 9.83975 -1.5
      vertex -5.90983 5.87785 -1.5
    endloop
  endfacet
  facet normal -0 0 -1
    outer loop
      vertex -5 9.83975 -1.5
      vertex -7.30869 7.43145 -1.5
      vertex -6.69131 11.0686 -1.5
    endloop
  endfacet
  facet normal 0 0 -1
    outer loop
      vertex -9 8.66025 -1.5
      vertex -6.69131 11.0686 -1.5
      vertex -7.30869 7.43145 -1.5
    endloop
  endfacet
  facet normal -0 0 -1
    outer loop
      vertex -6.69131 11.0686 -1.5
      vertex -9 8.66025 -1.5
      vertex -8.09017 12.6221 -1.5
    endloop
  endfacet
  facet normal 0 0 -1
    outer loop
      vertex -10.9098 9.51056 -1.5
      vertex -8.09017 12.6221 -1.5
      vertex -9 8.66025 -1.5
    endloop
  endfacet
  facet normal -0 0 -1
    outer loop
      vertex -8.09017 12.6221 -1.5
      vertex -10.9098 9.51056 -1.5
      vertex -9.13545 14.4326 -1.5
    endloop
  endfacet
  facet normal 0 0 -1
    outer loop
      vertex -12.9547 9.94522 -1.5
      vertex -9.13545 14.4326 -1.5
      vertex -10.9098 9.51056 -1.5
    endloop
  endfacet
  facet normal -0 0 -1
    outer loop
      vertex -9.13545 14.4326 -1.5
      vertex -12.9547 9.94522 -1.5
      vertex -9.78148 16.4209 -1.5
    endloop
  endfacet
  facet normal 0 0 -1
    outer loop
      vertex 16 -20.5 -1.5
      vertex 15.0453 -9.94522 -1.5
      vertex 16 -9.74229 -1.5
    endloop
  endfacet
  facet normal 0 0 -1
    outer loop
      vertex 9.78148 -16.4209 -1.5
      vertex 15.0453 -9.94522 -1.5
      vertex 16 -20.5 -1.5
    endloop
  endfacet
  facet normal -0 0 -1
    outer loop
      vertex 15.0453 -9.94522 -1.5
      vertex 9.78148 -16.4209 -1.5
      vertex 12.9547 -9.94522 -1.5
    endloop
  endfacet
  facet normal 0 0 -1
    outer loop
      vertex 9.78148 -16.4209 -1.5
      vertex 16 -20.5 -1.5
      vertex 10 -18.5 -1.5
    endloop
  endfacet
  facet normal 0 -0 -1
    outer loop
      vertex 10 -18.5 -1.5
      vertex 16 -20.5 -1.5
      vertex 9.78979 -20.5 -1.5
    endloop
  endfacet
  facet normal 0 0 -1
    outer loop
      vertex 9.13545 -14.4326 -1.5
      vertex 12.9547 -9.94522 -1.5
      vertex 9.78148 -16.4209 -1.5
    endloop
  endfacet
  facet normal -0 0 -1
    outer loop
      vertex 12.9547 -9.94522 -1.5
      vertex 9.13545 -14.4326 -1.5
      vertex 10.9098 -9.51056 -1.5
    endloop
  endfacet
  facet normal 0 0 -1
    outer loop
      vertex 8.09017 -12.6221 -1.5
      vertex 10.9098 -9.51056 -1.5
      vertex 9.13545 -14.4326 -1.5
    endloop
  endfacet
  facet normal -0 0 -1
    outer loop
      vertex 10.9098 -9.51056 -1.5
      vertex 8.09017 -12.6221 -1.5
      vertex 9 -8.66025 -1.5
    endloop
  endfacet
  facet normal 0 0 -1
    outer loop
      vertex 6.69131 -11.0686 -1.5
      vertex 9 -8.66025 -1.5
      vertex 8.09017 -12.6221 -1.5
    endloop
  endfacet
  facet normal -0 0 -1
    outer loop
      vertex 9 -8.66025 -1.5
      vertex 6.69131 -11.0686 -1.5
      vertex 7.30869 -7.43145 -1.5
    endloop
  endfacet
  facet normal 0 0 -1
    outer loop
      vertex 5 -9.83975 -1.5
      vertex 7.30869 -7.43145 -1.5
      vertex 6.69131 -11.0686 -1.5
    endloop
  endfacet
  facet normal -0 0 -1
    outer loop
      vertex 7.30869 -7.43145 -1.5
      vertex 5 -9.83975 -1.5
      vertex 5.90983 -5.87785 -1.5
    endloop
  endfacet
  facet normal 0 0 -1
    outer loop
      vertex 3.09017 -8.98943 -1.5
      vertex 5.90983 -5.87785 -1.5
      vertex 5 -9.83975 -1.5
    endloop
  endfacet
  facet normal -0 0 -1
    outer loop
      vertex 5.90983 -5.87785 -1.5
      vertex 3.09017 -8.98943 -1.5
      vertex 4.86454 -4.06737 -1.5
    endloop
  endfacet
  facet normal 0 0 -1
    outer loop
      vertex 1.04528 -8.55478 -1.5
      vertex 4.86454 -4.06737 -1.5
      vertex 3.09017 -8.98943 -1.5
    endloop
  endfacet
  facet normal -0 0 -1
    outer loop
      vertex 4.86454 -4.06737 -1.5
      vertex 1.04528 -8.55478 -1.5
      vertex 4.21852 -2.07912 -1.5
    endloop
  endfacet
  facet normal 0 0 -1
    outer loop
      vertex 16 20.5 -1.5
      vertex 9.78148 16.4209 -1.5
      vertex 10 18.5 -1.5
    endloop
  endfacet
  facet normal 0 0 -1
    outer loop
      vertex 12.9547 9.94522 -1.5
      vertex 9.13545 14.4326 -1.5
      vertex 9.78148 16.4209 -1.5
    endloop
  endfacet
  facet normal 0 0 -1
    outer loop
      vertex 8.09017 12.6221 -1.5
      vertex 10.9098 9.51056 -1.5
      vertex 9 8.66025 -1.5
    endloop
  endfacet
  facet normal 0 0 -1
    outer loop
      vertex 10.9098 9.51056 -1.5
      vertex 8.09017 12.6221 -1.5
      vertex 9.13545 14.4326 -1.5
    endloop
  endfacet
  facet normal 0 0 -1
    outer loop
      vertex 6.69131 11.0686 -1.5
      vertex 9 8.66025 -1.5
      vertex 7.30869 7.43145 -1.5
    endloop
  endfacet
  facet normal 0 0 -1
    outer loop
      vertex 9 8.66025 -1.5
      vertex 6.69131 11.0686 -1.5
      vertex 8.09017 12.6221 -1.5
    endloop
  endfacet
  facet normal 0 0 -1
    outer loop
      vertex 5 9.83975 -1.5
      vertex 7.30869 7.43145 -1.5
      vertex 5.90983 5.87785 -1.5
    endloop
  endfacet
  facet normal 0 0 -1
    outer loop
      vertex 7.30869 7.43145 -1.5
      vertex 5 9.83975 -1.5
      vertex 6.69131 11.0686 -1.5
    endloop
  endfacet
  facet normal 0 0 -1
    outer loop
      vertex 3.09017 8.98943 -1.5
      vertex 5.90983 5.87785 -1.5
      vertex 4.86454 4.06737 -1.5
    endloop
  endfacet
  facet normal 0 0 -1
    outer loop
      vertex 1.04528 8.55478 -1.5
      vertex 4.86454 4.06737 -1.5
      vertex 4.21852 2.07912 -1.5
    endloop
  endfacet
  facet normal 0 0 -1
    outer loop
      vertex -4 0 -1.5
      vertex 4.21852 2.07912 -1.5
      vertex 4 0 -1.5
    endloop
  endfacet
  facet normal 0 0 -1
    outer loop
      vertex 5.90983 5.87785 -1.5
      vertex 3.09017 8.98943 -1.5
      vertex 5 9.83975 -1.5
    endloop
  endfacet
  facet normal 0 0 -1
    outer loop
      vertex -4.21852 -2.07912 -1.5
      vertex 4.21852 -2.07912 -1.5
      vertex 1.04528 -8.55478 -1.5
    endloop
  endfacet
  facet normal 0 0 -1
    outer loop
      vertex 4.21852 -2.07912 -1.5
      vertex -4.21852 -2.07912 -1.5
      vertex 4 0 -1.5
    endloop
  endfacet
  facet normal 0 0 -1
    outer loop
      vertex -4.21852 2.07912 -1.5
      vertex 4.21852 2.07912 -1.5
      vertex -4 0 -1.5
    endloop
  endfacet
  facet normal 0 0 -1
    outer loop
      vertex -4.21852 -2.07912 -1.5
      vertex 1.04528 -8.55478 -1.5
      vertex -1.04528 -8.55478 -1.5
    endloop
  endfacet
  facet normal 0 0 -1
    outer loop
      vertex 4.86454 4.06737 -1.5
      vertex 1.04528 8.55478 -1.5
      vertex 3.09017 8.98943 -1.5
    endloop
  endfacet
  facet normal 0 0 -1
    outer loop
      vertex -4.86454 -4.06737 -1.5
      vertex -1.04528 -8.55478 -1.5
      vertex -3.09017 -8.98943 -1.5
    endloop
  endfacet
  facet normal 0 0 -1
    outer loop
      vertex 4.21852 2.07912 -1.5
      vertex -1.04528 8.55478 -1.5
      vertex 1.04528 8.55478 -1.5
    endloop
  endfacet
  facet normal 0 0 -1
    outer loop
      vertex 4.21852 2.07912 -1.5
      vertex -4.21852 2.07912 -1.5
      vertex -1.04528 8.55478 -1.5
    endloop
  endfacet
  facet normal -0 0 -1
    outer loop
      vertex 4 0 -1.5
      vertex -4.21852 -2.07912 -1.5
      vertex -4 0 -1.5
    endloop
  endfacet
  facet normal 0 0 -1
    outer loop
      vertex -1.04528 -8.55478 -1.5
      vertex -4.86454 -4.06737 -1.5
      vertex -4.21852 -2.07912 -1.5
    endloop
  endfacet
  facet normal 0 0 -1
    outer loop
      vertex -5.90983 -5.87785 -1.5
      vertex -3.09017 -8.98943 -1.5
      vertex -5 -9.83975 -1.5
    endloop
  endfacet
  facet normal 0 0 -1
    outer loop
      vertex -3.09017 -8.98943 -1.5
      vertex -5.90983 -5.87785 -1.5
      vertex -4.86454 -4.06737 -1.5
    endloop
  endfacet
  facet normal 0 0 -1
    outer loop
      vertex -7.30869 -7.43145 -1.5
      vertex -5 -9.83975 -1.5
      vertex -6.69131 -11.0686 -1.5
    endloop
  endfacet
  facet normal 0 0 -1
    outer loop
      vertex -5 -9.83975 -1.5
      vertex -7.30869 -7.43145 -1.5
      vertex -5.90983 -5.87785 -1.5
    endloop
  endfacet
  facet normal 0 0 -1
    outer loop
      vertex -9 -8.66025 -1.5
      vertex -6.69131 -11.0686 -1.5
      vertex -8.09017 -12.6221 -1.5
    endloop
  endfacet
  facet normal 0 0 -1
    outer loop
      vertex -6.69131 -11.0686 -1.5
      vertex -9 -8.66025 -1.5
      vertex -7.30869 -7.43145 -1.5
    endloop
  endfacet
  facet normal 0 0 -1
    outer loop
      vertex -10.9098 -9.51056 -1.5
      vertex -8.09017 -12.6221 -1.5
      vertex -9.13545 -14.4326 -1.5
    endloop
  endfacet
  facet normal 0 0 -1
    outer loop
      vertex -12.9547 -9.94522 -1.5
      vertex -9.13545 -14.4326 -1.5
      vertex -9.78148 -16.4209 -1.5
    endloop
  endfacet
  facet normal 0 0 -1
    outer loop
      vertex -16 -20.5 -1.5
      vertex -9.78148 -16.4209 -1.5
      vertex -10 -18.5 -1.5
    endloop
  endfacet
  facet normal 0 0 -1
    outer loop
      vertex -8.09017 -12.6221 -1.5
      vertex -10.9098 -9.51056 -1.5
      vertex -9 -8.66025 -1.5
    endloop
  endfacet
  facet normal 0 0 -1
    outer loop
      vertex 15.0453 9.94522 -1.5
      vertex 16 20.5 -1.5
      vertex 16 9.74229 -1.5
    endloop
  endfacet
  facet normal 0 0 -1
    outer loop
      vertex 9.78148 16.4209 -1.5
      vertex 15.0453 9.94522 -1.5
      vertex 12.9547 9.94522 -1.5
    endloop
  endfacet
  facet normal 0 0 -1
    outer loop
      vertex 9.13545 14.4326 -1.5
      vertex 12.9547 9.94522 -1.5
      vertex 10.9098 9.51056 -1.5
    endloop
  endfacet
  facet normal 0 0 -1
    outer loop
      vertex 9.78148 16.4209 -1.5
      vertex 16 20.5 -1.5
      vertex 15.0453 9.94522 -1.5
    endloop
  endfacet
  facet normal -0 0 -1
    outer loop
      vertex 16 20.5 -1.5
      vertex 10 18.5 -1.5
      vertex 9.78979 20.5 -1.5
    endloop
  endfacet
  facet normal 0 0 -1
    outer loop
      vertex -15.0453 9.94522 -1.5
      vertex -9.78148 16.4209 -1.5
      vertex -12.9547 9.94522 -1.5
    endloop
  endfacet
  facet normal 0 0 -1
    outer loop
      vertex -16 20.5 -1.5
      vertex -9.78148 16.4209 -1.5
      vertex -15.0453 9.94522 -1.5
    endloop
  endfacet
  facet normal 0 0 -1
    outer loop
      vertex -9.78148 16.4209 -1.5
      vertex -16 20.5 -1.5
      vertex -10 18.5 -1.5
    endloop
  endfacet
  facet normal 0 0 -1
    outer loop
      vertex -16 20.5 -1.5
      vertex -15.0453 9.94522 -1.5
      vertex -16 9.74229 -1.5
    endloop
  endfacet
  facet normal 0 0 -1
    outer loop
      vertex -10 18.5 -1.5
      vertex -16 20.5 -1.5
      vertex -9.78979 20.5 -1.5
    endloop
  endfacet
  facet normal 0 -1 0
    outer loop
      vertex -16 -20.5 -1.5
      vertex -9.78979 -20.5 1.5
      vertex -16 -20.5 1.5
    endloop
  endfacet
  facet normal 0 -1 -0
    outer loop
      vertex -9.78979 -20.5 1.5
      vertex -16 -20.5 -1.5
      vertex -9.78979 -20.5 -1.5
    endloop
  endfacet
  facet normal 0 -1 0
    outer loop
      vertex 9.78979 -20.5 -1.5
      vertex 16 -20.5 1.5
      vertex 9.78979 -20.5 1.5
    endloop
  endfacet
  facet normal 0 -1 -0
    outer loop
      vertex 16 -20.5 1.5
      vertex 9.78979 -20.5 -1.5
      vertex 16 -20.5 -1.5
    endloop
  endfacet
  facet normal 0.808066 0.587094 0.048484
    outer loop
      vertex 15 18.5 1.5
      vertex 14.309 19.4511 1.5
      vertex 14.7 18.5 6.5
    endloop
  endfacet
  facet normal 0 0 1
    outer loop
      vertex 14.2163 19.1657 6.5
      vertex 14.2163 17.8343 6.5
      vertex 14.7 18.5 6.5
    endloop
  endfacet
  facet normal -0 0 1
    outer loop
      vertex 13.4337 18.9114 6.5
      vertex 14.2163 17.8343 6.5
      vertex 14.2163 19.1657 6.5
    endloop
  endfacet
  facet normal 0 0 1
    outer loop
      vertex 14.2163 17.8343 6.5
      vertex 13.4337 18.9114 6.5
      vertex 13.4337 18.0886 6.5
    endloop
  endfacet
  facet normal -0.308653 0.949938 0.0484842
    outer loop
      vertex 14.309 19.4511 1.5
      vertex 13.4337 18.9114 6.5
      vertex 14.2163 19.1657 6.5
    endloop
  endfacet
  facet normal -0.308655 -0.949938 0.0484838
    outer loop
      vertex 14.2163 17.8343 6.5
      vertex 13.4337 18.0886 6.5
      vertex 14.309 17.5489 1.5
    endloop
  endfacet
  facet normal -0.998824 0 0.0484838
    outer loop
      vertex 13.191 19.0878 1.5
      vertex 13.4337 18.0886 6.5
      vertex 13.4337 18.9114 6.5
    endloop
  endfacet
  facet normal -0.998824 0 0.0484838
    outer loop
      vertex 13.4337 18.0886 6.5
      vertex 13.191 19.0878 1.5
      vertex 13.191 17.9122 1.5
    endloop
  endfacet
  facet normal -0.308656 0.949937 0.0484837
    outer loop
      vertex 14.309 19.4511 1.5
      vertex 13.191 19.0878 1.5
      vertex 13.4337 18.9114 6.5
    endloop
  endfacet
  facet normal 0.808065 0.587094 0.0484841
    outer loop
      vertex 14.309 19.4511 1.5
      vertex 14.2163 19.1657 6.5
      vertex 14.7 18.5 6.5
    endloop
  endfacet
  facet normal -0.308654 -0.949938 0.048484
    outer loop
      vertex 13.4337 18.0886 6.5
      vertex 13.191 17.9122 1.5
      vertex 14.309 17.5489 1.5
    endloop
  endfacet
  facet normal 0.808066 -0.587094 0.0484838
    outer loop
      vertex 15 18.5 1.5
      vertex 14.2163 17.8343 6.5
      vertex 14.309 17.5489 1.5
    endloop
  endfacet
  facet normal 0.808066 -0.587093 0.048484
    outer loop
      vertex 14.7 18.5 6.5
      vertex 14.2163 17.8343 6.5
      vertex 15 18.5 1.5
    endloop
  endfacet
  facet normal -0.308656 -0.949937 0.0484837
    outer loop
      vertex 13.4337 -18.9114 6.5
      vertex 13.191 -19.0878 1.5
      vertex 14.309 -19.4511 1.5
    endloop
  endfacet
  facet normal 0.808066 0.587093 0.048484
    outer loop
      vertex 15 -18.5 1.5
      vertex 14.2163 -17.8343 6.5
      vertex 14.7 -18.5 6.5
    endloop
  endfacet
  facet normal 0.808066 0.587094 0.0484838
    outer loop
      vertex 14.309 -17.5489 1.5
      vertex 14.2163 -17.8343 6.5
      vertex 15 -18.5 1.5
    endloop
  endfacet
  facet normal 0.808066 -0.587094 0.048484
    outer loop
      vertex 14.7 -18.5 6.5
      vertex 14.309 -19.4511 1.5
      vertex 15 -18.5 1.5
    endloop
  endfacet
  facet normal -0.308654 0.949938 0.048484
    outer loop
      vertex 14.309 -17.5489 1.5
      vertex 13.191 -17.9122 1.5
      vertex 13.4337 -18.0886 6.5
    endloop
  endfacet
  facet normal -0.998824 0 0.0484838
    outer loop
      vertex 13.191 -17.9122 1.5
      vertex 13.4337 -18.9114 6.5
      vertex 13.4337 -18.0886 6.5
    endloop
  endfacet
  facet normal -0.998824 0 0.0484838
    outer loop
      vertex 13.4337 -18.9114 6.5
      vertex 13.191 -17.9122 1.5
      vertex 13.191 -19.0878 1.5
    endloop
  endfacet
  facet normal -0.308653 -0.949938 0.0484842
    outer loop
      vertex 14.2163 -19.1657 6.5
      vertex 13.4337 -18.9114 6.5
      vertex 14.309 -19.4511 1.5
    endloop
  endfacet
  facet normal 0.808065 -0.587094 0.0484841
    outer loop
      vertex 14.7 -18.5 6.5
      vertex 14.2163 -19.1657 6.5
      vertex 14.309 -19.4511 1.5
    endloop
  endfacet
  facet normal -0.308655 0.949938 0.0484838
    outer loop
      vertex 14.309 -17.5489 1.5
      vertex 13.4337 -18.0886 6.5
      vertex 14.2163 -17.8343 6.5
    endloop
  endfacet
  facet normal 0 0 1
    outer loop
      vertex 14.2163 -17.8343 6.5
      vertex 14.2163 -19.1657 6.5
      vertex 14.7 -18.5 6.5
    endloop
  endfacet
  facet normal -0 0 1
    outer loop
      vertex 13.4337 -18.0886 6.5
      vertex 14.2163 -19.1657 6.5
      vertex 14.2163 -17.8343 6.5
    endloop
  endfacet
  facet normal 0 0 1
    outer loop
      vertex 14.2163 -19.1657 6.5
      vertex 13.4337 -18.0886 6.5
      vertex 13.4337 -18.9114 6.5
    endloop
  endfacet
  facet normal 0.808066 0.587094 0.0484838
    outer loop
      vertex -13 18.5 1.5
      vertex -13.691 19.4511 1.5
      vertex -13.3 18.5 6.5
    endloop
  endfacet
  facet normal 0 0 1
    outer loop
      vertex -13.7837 19.1657 6.5
      vertex -13.7837 17.8343 6.5
      vertex -13.3 18.5 6.5
    endloop
  endfacet
  facet normal -0 0 1
    outer loop
      vertex -14.5663 18.9114 6.5
      vertex -13.7837 17.8343 6.5
      vertex -13.7837 19.1657 6.5
    endloop
  endfacet
  facet normal 0 0 1
    outer loop
      vertex -13.7837 17.8343 6.5
      vertex -14.5663 18.9114 6.5
      vertex -14.5663 18.0886 6.5
    endloop
  endfacet
  facet normal -0.308653 0.949938 0.0484842
    outer loop
      vertex -13.691 19.4511 1.5
      vertex -14.5663 18.9114 6.5
      vertex -13.7837 19.1657 6.5
    endloop
  endfacet
  facet normal 0.808066 -0.587094 0.0484838
    outer loop
      vertex -13.3 18.5 6.5
      vertex -13.691 17.5489 1.5
      vertex -13 18.5 1.5
    endloop
  endfacet
  facet normal -0.998824 0 0.0484838
    outer loop
      vertex -14.809 19.0878 1.5
      vertex -14.5663 18.0886 6.5
      vertex -14.5663 18.9114 6.5
    endloop
  endfacet
  facet normal -0.998824 0 0.0484838
    outer loop
      vertex -14.5663 18.0886 6.5
      vertex -14.809 19.0878 1.5
      vertex -14.809 17.9122 1.5
    endloop
  endfacet
  facet normal -0.308656 0.949937 0.0484837
    outer loop
      vertex -13.691 19.4511 1.5
      vertex -14.809 19.0878 1.5
      vertex -14.5663 18.9114 6.5
    endloop
  endfacet
  facet normal 0.808065 0.587094 0.0484841
    outer loop
      vertex -13.691 19.4511 1.5
      vertex -13.7837 19.1657 6.5
      vertex -13.3 18.5 6.5
    endloop
  endfacet
  facet normal -0.308654 -0.949938 0.048484
    outer loop
      vertex -14.5663 18.0886 6.5
      vertex -14.809 17.9122 1.5
      vertex -13.691 17.5489 1.5
    endloop
  endfacet
  facet normal -0.308655 -0.949938 0.0484838
    outer loop
      vertex -13.7837 17.8343 6.5
      vertex -14.5663 18.0886 6.5
      vertex -13.691 17.5489 1.5
    endloop
  endfacet
  facet normal 0.808066 -0.587093 0.0484838
    outer loop
      vertex -13.3 18.5 6.5
      vertex -13.7837 17.8343 6.5
      vertex -13.691 17.5489 1.5
    endloop
  endfacet
  facet normal 0.808066 0.587094 0.0484838
    outer loop
      vertex -13 -18.5 1.5
      vertex -13.691 -17.5489 1.5
      vertex -13.3 -18.5 6.5
    endloop
  endfacet
  facet normal 0 0 1
    outer loop
      vertex -13.7837 -17.8343 6.5
      vertex -13.7837 -19.1657 6.5
      vertex -13.3 -18.5 6.5
    endloop
  endfacet
  facet normal -0 0 1
    outer loop
      vertex -14.5663 -18.0886 6.5
      vertex -13.7837 -19.1657 6.5
      vertex -13.7837 -17.8343 6.5
    endloop
  endfacet
  facet normal 0 0 1
    outer loop
      vertex -13.7837 -19.1657 6.5
      vertex -14.5663 -18.0886 6.5
      vertex -14.5663 -18.9114 6.5
    endloop
  endfacet
  facet normal -0.308655 0.949938 0.0484838
    outer loop
      vertex -13.691 -17.5489 1.5
      vertex -14.5663 -18.0886 6.5
      vertex -13.7837 -17.8343 6.5
    endloop
  endfacet
  facet normal 0.808066 -0.587094 0.0484838
    outer loop
      vertex -13.3 -18.5 6.5
      vertex -13.691 -19.4511 1.5
      vertex -13 -18.5 1.5
    endloop
  endfacet
  facet normal -0.998824 0 0.0484838
    outer loop
      vertex -14.809 -17.9122 1.5
      vertex -14.5663 -18.9114 6.5
      vertex -14.5663 -18.0886 6.5
    endloop
  endfacet
  facet normal -0.998824 0 0.0484838
    outer loop
      vertex -14.5663 -18.9114 6.5
      vertex -14.809 -17.9122 1.5
      vertex -14.809 -19.0878 1.5
    endloop
  endfacet
  facet normal -0.308654 0.949938 0.048484
    outer loop
      vertex -13.691 -17.5489 1.5
      vertex -14.809 -17.9122 1.5
      vertex -14.5663 -18.0886 6.5
    endloop
  endfacet
  facet normal 0.808066 0.587093 0.0484838
    outer loop
      vertex -13.691 -17.5489 1.5
      vertex -13.7837 -17.8343 6.5
      vertex -13.3 -18.5 6.5
    endloop
  endfacet
  facet normal -0.308656 -0.949937 0.0484837
    outer loop
      vertex -14.5663 -18.9114 6.5
      vertex -14.809 -19.0878 1.5
      vertex -13.691 -19.4511 1.5
    endloop
  endfacet
  facet normal -0.308653 -0.949938 0.0484842
    outer loop
      vertex -13.7837 -19.1657 6.5
      vertex -14.5663 -18.9114 6.5
      vertex -13.691 -19.4511 1.5
    endloop
  endfacet
  facet normal 0.808065 -0.587094 0.0484841
    outer loop
      vertex -13.3 -18.5 6.5
      vertex -13.7837 -19.1657 6.5
      vertex -13.691 -19.4511 1.5
    endloop
  endfacet
  facet normal 0.207911 -0.978148 0
    outer loop
      vertex 10.9098 9.51056 -1.5
      vertex 12.9547 9.94522 1.5
      vertex 10.9098 9.51056 1.5
    endloop
  endfacet
  facet normal 0.207911 -0.978148 0
    outer loop
      vertex 12.9547 9.94522 1.5
      vertex 10.9098 9.51056 -1.5
      vertex 12.9547 9.94522 -1.5
    endloop
  endfacet
  facet normal -0.207911 0.978148 0
    outer loop
      vertex 16 -9.74229 -1.5
      vertex 15.0453 -9.94522 1.5
      vertex 16 -9.74229 1.5
    endloop
  endfacet
  facet normal -0.207911 0.978148 0
    outer loop
      vertex 15.0453 -9.94522 1.5
      vertex 16 -9.74229 -1.5
      vertex 15.0453 -9.94522 -1.5
    endloop
  endfacet
  facet normal 0.743145 -0.669131 0
    outer loop
      vertex 5.90983 5.87785 1.5
      vertex 7.30869 7.43145 -1.5
      vertex 7.30869 7.43145 1.5
    endloop
  endfacet
  facet normal 0.743145 -0.669131 0
    outer loop
      vertex 7.30869 7.43145 -1.5
      vertex 5.90983 5.87785 1.5
      vertex 5.90983 5.87785 -1.5
    endloop
  endfacet
  facet normal 0.587785 -0.809017 0
    outer loop
      vertex 7.30869 7.43145 -1.5
      vertex 9 8.66025 1.5
      vertex 7.30869 7.43145 1.5
    endloop
  endfacet
  facet normal 0.587785 -0.809017 0
    outer loop
      vertex 9 8.66025 1.5
      vertex 7.30869 7.43145 -1.5
      vertex 9 8.66025 -1.5
    endloop
  endfacet
  facet normal -0.207911 -0.978148 0
    outer loop
      vertex 15.0453 9.94522 -1.5
      vertex 16 9.74229 1.5
      vertex 15.0453 9.94522 1.5
    endloop
  endfacet
  facet normal -0.207911 -0.978148 -0
    outer loop
      vertex 16 9.74229 1.5
      vertex 15.0453 9.94522 -1.5
      vertex 16 9.74229 -1.5
    endloop
  endfacet
  facet normal 0 -1 0
    outer loop
      vertex 12.9547 9.94522 -1.5
      vertex 15.0453 9.94522 1.5
      vertex 12.9547 9.94522 1.5
    endloop
  endfacet
  facet normal 0 -1 -0
    outer loop
      vertex 15.0453 9.94522 1.5
      vertex 12.9547 9.94522 -1.5
      vertex 15.0453 9.94522 -1.5
    endloop
  endfacet
  facet normal 0.951057 -0.309017 0
    outer loop
      vertex 4.21852 2.07912 1.5
      vertex 4.86454 4.06737 -1.5
      vertex 4.86454 4.06737 1.5
    endloop
  endfacet
  facet normal 0.951057 -0.309017 0
    outer loop
      vertex 4.86454 4.06737 -1.5
      vertex 4.21852 2.07912 1.5
      vertex 4.21852 2.07912 -1.5
    endloop
  endfacet
  facet normal 0.866026 -0.5 0
    outer loop
      vertex 4.86454 4.06737 1.5
      vertex 5.90983 5.87785 -1.5
      vertex 5.90983 5.87785 1.5
    endloop
  endfacet
  facet normal 0.866026 -0.5 0
    outer loop
      vertex 5.90983 5.87785 -1.5
      vertex 4.86454 4.06737 1.5
      vertex 4.86454 4.06737 -1.5
    endloop
  endfacet
  facet normal 0.994522 -0.104528 0
    outer loop
      vertex 4 0 1.5
      vertex 4.21852 2.07912 -1.5
      vertex 4.21852 2.07912 1.5
    endloop
  endfacet
  facet normal 0.994522 -0.104528 0
    outer loop
      vertex 4.21852 2.07912 -1.5
      vertex 4 0 1.5
      vertex 4 0 -1.5
    endloop
  endfacet
  facet normal 0.406737 -0.913545 0
    outer loop
      vertex 9 8.66025 -1.5
      vertex 10.9098 9.51056 1.5
      vertex 9 8.66025 1.5
    endloop
  endfacet
  facet normal 0.406737 -0.913545 0
    outer loop
      vertex 10.9098 9.51056 1.5
      vertex 9 8.66025 -1.5
      vertex 10.9098 9.51056 -1.5
    endloop
  endfacet
  facet normal 0.994522 0.104528 0
    outer loop
      vertex 4.21852 -2.07912 1.5
      vertex 4 0 -1.5
      vertex 4 0 1.5
    endloop
  endfacet
  facet normal 0.994522 0.104528 0
    outer loop
      vertex 4 0 -1.5
      vertex 4.21852 -2.07912 1.5
      vertex 4.21852 -2.07912 -1.5
    endloop
  endfacet
  facet normal 0.406737 0.913545 -0
    outer loop
      vertex 10.9098 -9.51056 -1.5
      vertex 9 -8.66025 1.5
      vertex 10.9098 -9.51056 1.5
    endloop
  endfacet
  facet normal 0.406737 0.913545 0
    outer loop
      vertex 9 -8.66025 1.5
      vertex 10.9098 -9.51056 -1.5
      vertex 9 -8.66025 -1.5
    endloop
  endfacet
  facet normal 0.743145 0.669131 0
    outer loop
      vertex 7.30869 -7.43145 1.5
      vertex 5.90983 -5.87785 -1.5
      vertex 5.90983 -5.87785 1.5
    endloop
  endfacet
  facet normal 0.743145 0.669131 0
    outer loop
      vertex 5.90983 -5.87785 -1.5
      vertex 7.30869 -7.43145 1.5
      vertex 7.30869 -7.43145 -1.5
    endloop
  endfacet
  facet normal 0.951057 0.309017 0
    outer loop
      vertex 4.86454 -4.06737 1.5
      vertex 4.21852 -2.07912 -1.5
      vertex 4.21852 -2.07912 1.5
    endloop
  endfacet
  facet normal 0.951057 0.309017 0
    outer loop
      vertex 4.21852 -2.07912 -1.5
      vertex 4.86454 -4.06737 1.5
      vertex 4.86454 -4.06737 -1.5
    endloop
  endfacet
  facet normal 0.207911 0.978148 -0
    outer loop
      vertex 12.9547 -9.94522 -1.5
      vertex 10.9098 -9.51056 1.5
      vertex 12.9547 -9.94522 1.5
    endloop
  endfacet
  facet normal 0.207911 0.978148 0
    outer loop
      vertex 10.9098 -9.51056 1.5
      vertex 12.9547 -9.94522 -1.5
      vertex 10.9098 -9.51056 -1.5
    endloop
  endfacet
  facet normal 0.587785 0.809017 -0
    outer loop
      vertex 9 -8.66025 -1.5
      vertex 7.30869 -7.43145 1.5
      vertex 9 -8.66025 1.5
    endloop
  endfacet
  facet normal 0.587785 0.809017 0
    outer loop
      vertex 7.30869 -7.43145 1.5
      vertex 9 -8.66025 -1.5
      vertex 7.30869 -7.43145 -1.5
    endloop
  endfacet
  facet normal 0.866026 0.5 0
    outer loop
      vertex 5.90983 -5.87785 1.5
      vertex 4.86454 -4.06737 -1.5
      vertex 4.86454 -4.06737 1.5
    endloop
  endfacet
  facet normal 0.866026 0.5 0
    outer loop
      vertex 4.86454 -4.06737 -1.5
      vertex 5.90983 -5.87785 1.5
      vertex 5.90983 -5.87785 -1.5
    endloop
  endfacet
  facet normal 0 1 -0
    outer loop
      vertex 15.0453 -9.94522 -1.5
      vertex 12.9547 -9.94522 1.5
      vertex 15.0453 -9.94522 1.5
    endloop
  endfacet
  facet normal 0 1 0
    outer loop
      vertex 12.9547 -9.94522 1.5
      vertex 15.0453 -9.94522 -1.5
      vertex 12.9547 -9.94522 -1.5
    endloop
  endfacet
  facet normal -0.994522 -0.104529 0
    outer loop
      vertex 10 -18.5 -1.5
      vertex 9.78148 -16.4209 1.5
      vertex 9.78148 -16.4209 -1.5
    endloop
  endfacet
  facet normal -0.994522 -0.104529 0
    outer loop
      vertex 9.78148 -16.4209 1.5
      vertex 10 -18.5 -1.5
      vertex 10 -18.5 1.5
    endloop
  endfacet
  facet normal 0.994522 -0.104529 0
    outer loop
      vertex -10 -18.5 1.5
      vertex -9.78148 -16.4209 -1.5
      vertex -9.78148 -16.4209 1.5
    endloop
  endfacet
  facet normal 0.994522 -0.104529 0
    outer loop
      vertex -9.78148 -16.4209 -1.5
      vertex -10 -18.5 1.5
      vertex -10 -18.5 -1.5
    endloop
  endfacet
  facet normal 0 -1 0
    outer loop
      vertex -1.04528 -8.55478 -1.5
      vertex 1.04528 -8.55478 1.5
      vertex -1.04528 -8.55478 1.5
    endloop
  endfacet
  facet normal 0 -1 -0
    outer loop
      vertex 1.04528 -8.55478 1.5
      vertex -1.04528 -8.55478 -1.5
      vertex 1.04528 -8.55478 -1.5
    endloop
  endfacet
  facet normal -0.587785 -0.809017 0
    outer loop
      vertex 5 -9.83975 -1.5
      vertex 6.69131 -11.0686 1.5
      vertex 5 -9.83975 1.5
    endloop
  endfacet
  facet normal -0.587785 -0.809017 -0
    outer loop
      vertex 6.69131 -11.0686 1.5
      vertex 5 -9.83975 -1.5
      vertex 6.69131 -11.0686 -1.5
    endloop
  endfacet
  facet normal -0.406737 -0.913545 0
    outer loop
      vertex 3.09017 -8.98943 -1.5
      vertex 5 -9.83975 1.5
      vertex 3.09017 -8.98943 1.5
    endloop
  endfacet
  facet normal -0.406737 -0.913545 -0
    outer loop
      vertex 5 -9.83975 1.5
      vertex 3.09017 -8.98943 -1.5
      vertex 5 -9.83975 -1.5
    endloop
  endfacet
  facet normal 0.743145 -0.669131 0
    outer loop
      vertex -8.09017 -12.6221 1.5
      vertex -6.69131 -11.0686 -1.5
      vertex -6.69131 -11.0686 1.5
    endloop
  endfacet
  facet normal 0.743145 -0.669131 0
    outer loop
      vertex -6.69131 -11.0686 -1.5
      vertex -8.09017 -12.6221 1.5
      vertex -8.09017 -12.6221 -1.5
    endloop
  endfacet
  facet normal 0.866026 -0.5 0
    outer loop
      vertex -9.13545 -14.4326 1.5
      vertex -8.09017 -12.6221 -1.5
      vertex -8.09017 -12.6221 1.5
    endloop
  endfacet
  facet normal 0.866026 -0.5 0
    outer loop
      vertex -8.09017 -12.6221 -1.5
      vertex -9.13545 -14.4326 1.5
      vertex -9.13545 -14.4326 -1.5
    endloop
  endfacet
  facet normal 0.406737 -0.913545 0
    outer loop
      vertex -5 -9.83975 -1.5
      vertex -3.09017 -8.98943 1.5
      vertex -5 -9.83975 1.5
    endloop
  endfacet
  facet normal 0.406737 -0.913545 0
    outer loop
      vertex -3.09017 -8.98943 1.5
      vertex -5 -9.83975 -1.5
      vertex -3.09017 -8.98943 -1.5
    endloop
  endfacet
  facet normal -0.866026 -0.5 0
    outer loop
      vertex 9.13545 -14.4326 -1.5
      vertex 8.09017 -12.6221 1.5
      vertex 8.09017 -12.6221 -1.5
    endloop
  endfacet
  facet normal -0.866026 -0.5 0
    outer loop
      vertex 8.09017 -12.6221 1.5
      vertex 9.13545 -14.4326 -1.5
      vertex 9.13545 -14.4326 1.5
    endloop
  endfacet
  facet normal -0.951057 -0.309017 0
    outer loop
      vertex 9.78148 -16.4209 -1.5
      vertex 9.13545 -14.4326 1.5
      vertex 9.13545 -14.4326 -1.5
    endloop
  endfacet
  facet normal -0.951057 -0.309017 0
    outer loop
      vertex 9.13545 -14.4326 1.5
      vertex 9.78148 -16.4209 -1.5
      vertex 9.78148 -16.4209 1.5
    endloop
  endfacet
  facet normal -0.743145 -0.669131 0
    outer loop
      vertex 8.09017 -12.6221 -1.5
      vertex 6.69131 -11.0686 1.5
      vertex 6.69131 -11.0686 -1.5
    endloop
  endfacet
  facet normal -0.743145 -0.669131 0
    outer loop
      vertex 6.69131 -11.0686 1.5
      vertex 8.09017 -12.6221 -1.5
      vertex 8.09017 -12.6221 1.5
    endloop
  endfacet
  facet normal -0.207911 -0.978148 0
    outer loop
      vertex 1.04528 -8.55478 -1.5
      vertex 3.09017 -8.98943 1.5
      vertex 1.04528 -8.55478 1.5
    endloop
  endfacet
  facet normal -0.207911 -0.978148 -0
    outer loop
      vertex 3.09017 -8.98943 1.5
      vertex 1.04528 -8.55478 -1.5
      vertex 3.09017 -8.98943 -1.5
    endloop
  endfacet
  facet normal 0.951057 -0.309017 0
    outer loop
      vertex -9.78148 -16.4209 1.5
      vertex -9.13545 -14.4326 -1.5
      vertex -9.13545 -14.4326 1.5
    endloop
  endfacet
  facet normal 0.951057 -0.309017 0
    outer loop
      vertex -9.13545 -14.4326 -1.5
      vertex -9.78148 -16.4209 1.5
      vertex -9.78148 -16.4209 -1.5
    endloop
  endfacet
  facet normal 0.587785 -0.809017 0
    outer loop
      vertex -6.69131 -11.0686 -1.5
      vertex -5 -9.83975 1.5
      vertex -6.69131 -11.0686 1.5
    endloop
  endfacet
  facet normal 0.587785 -0.809017 0
    outer loop
      vertex -5 -9.83975 1.5
      vertex -6.69131 -11.0686 -1.5
      vertex -5 -9.83975 -1.5
    endloop
  endfacet
  facet normal 0.207911 -0.978148 0
    outer loop
      vertex -3.09017 -8.98943 -1.5
      vertex -1.04528 -8.55478 1.5
      vertex -3.09017 -8.98943 1.5
    endloop
  endfacet
  facet normal 0.207911 -0.978148 0
    outer loop
      vertex -1.04528 -8.55478 1.5
      vertex -3.09017 -8.98943 -1.5
      vertex -1.04528 -8.55478 -1.5
    endloop
  endfacet
  facet normal -0.994522 0.104529 0
    outer loop
      vertex 9.78979 -20.5 -1.5
      vertex 10 -18.5 1.5
      vertex 10 -18.5 -1.5
    endloop
  endfacet
  facet normal -0.994522 0.104529 0
    outer loop
      vertex 10 -18.5 1.5
      vertex 9.78979 -20.5 -1.5
      vertex 9.78979 -20.5 1.5
    endloop
  endfacet
  facet normal 0.994522 0.104529 0
    outer loop
      vertex -9.78979 -20.5 1.5
      vertex -10 -18.5 -1.5
      vertex -10 -18.5 1.5
    endloop
  endfacet
  facet normal 0.994522 0.104529 0
    outer loop
      vertex -10 -18.5 -1.5
      vertex -9.78979 -20.5 1.5
      vertex -9.78979 -20.5 -1.5
    endloop
  endfacet
  facet normal -0.994522 -0.104529 0
    outer loop
      vertex 10 18.5 -1.5
      vertex 9.78979 20.5 1.5
      vertex 9.78979 20.5 -1.5
    endloop
  endfacet
  facet normal -0.994522 -0.104529 0
    outer loop
      vertex 9.78979 20.5 1.5
      vertex 10 18.5 -1.5
      vertex 10 18.5 1.5
    endloop
  endfacet
  facet normal -0.207911 0.978148 0
    outer loop
      vertex 3.09017 8.98943 -1.5
      vertex 1.04528 8.55478 1.5
      vertex 3.09017 8.98943 1.5
    endloop
  endfacet
  facet normal -0.207911 0.978148 0
    outer loop
      vertex 1.04528 8.55478 1.5
      vertex 3.09017 8.98943 -1.5
      vertex 1.04528 8.55478 -1.5
    endloop
  endfacet
  facet normal -0.406737 0.913545 0
    outer loop
      vertex 5 9.83975 -1.5
      vertex 3.09017 8.98943 1.5
      vertex 5 9.83975 1.5
    endloop
  endfacet
  facet normal -0.406737 0.913545 0
    outer loop
      vertex 3.09017 8.98943 1.5
      vertex 5 9.83975 -1.5
      vertex 3.09017 8.98943 -1.5
    endloop
  endfacet
  facet normal 0.994522 -0.104529 0
    outer loop
      vertex -10 18.5 1.5
      vertex -9.78979 20.5 -1.5
      vertex -9.78979 20.5 1.5
    endloop
  endfacet
  facet normal 0.994522 -0.104529 0
    outer loop
      vertex -9.78979 20.5 -1.5
      vertex -10 18.5 1.5
      vertex -10 18.5 -1.5
    endloop
  endfacet
  facet normal -0.994522 0.104529 0
    outer loop
      vertex 9.78148 16.4209 -1.5
      vertex 10 18.5 1.5
      vertex 10 18.5 -1.5
    endloop
  endfacet
  facet normal -0.994522 0.104529 0
    outer loop
      vertex 10 18.5 1.5
      vertex 9.78148 16.4209 -1.5
      vertex 9.78148 16.4209 1.5
    endloop
  endfacet
  facet normal 0.994522 0.104529 0
    outer loop
      vertex -9.78148 16.4209 1.5
      vertex -10 18.5 -1.5
      vertex -10 18.5 1.5
    endloop
  endfacet
  facet normal 0.994522 0.104529 0
    outer loop
      vertex -10 18.5 -1.5
      vertex -9.78148 16.4209 1.5
      vertex -9.78148 16.4209 -1.5
    endloop
  endfacet
  facet normal -0.866026 0.5 0
    outer loop
      vertex 8.09017 12.6221 -1.5
      vertex 9.13545 14.4326 1.5
      vertex 9.13545 14.4326 -1.5
    endloop
  endfacet
  facet normal -0.866026 0.5 0
    outer loop
      vertex 9.13545 14.4326 1.5
      vertex 8.09017 12.6221 -1.5
      vertex 8.09017 12.6221 1.5
    endloop
  endfacet
  facet normal 0.743145 0.669131 0
    outer loop
      vertex -6.69131 11.0686 1.5
      vertex -8.09017 12.6221 -1.5
      vertex -8.09017 12.6221 1.5
    endloop
  endfacet
  facet normal 0.743145 0.669131 0
    outer loop
      vertex -8.09017 12.6221 -1.5
      vertex -6.69131 11.0686 1.5
      vertex -6.69131 11.0686 -1.5
    endloop
  endfacet
  facet normal 0.587785 0.809017 -0
    outer loop
      vertex -5 9.83975 -1.5
      vertex -6.69131 11.0686 1.5
      vertex -5 9.83975 1.5
    endloop
  endfacet
  facet normal 0.587785 0.809017 0
    outer loop
      vertex -6.69131 11.0686 1.5
      vertex -5 9.83975 -1.5
      vertex -6.69131 11.0686 -1.5
    endloop
  endfacet
  facet normal 0.951057 0.309017 0
    outer loop
      vertex -9.13545 14.4326 1.5
      vertex -9.78148 16.4209 -1.5
      vertex -9.78148 16.4209 1.5
    endloop
  endfacet
  facet normal 0.951057 0.309017 0
    outer loop
      vertex -9.78148 16.4209 -1.5
      vertex -9.13545 14.4326 1.5
      vertex -9.13545 14.4326 -1.5
    endloop
  endfacet
  facet normal -0.587785 0.809017 0
    outer loop
      vertex 6.69131 11.0686 -1.5
      vertex 5 9.83975 1.5
      vertex 6.69131 11.0686 1.5
    endloop
  endfacet
  facet normal -0.587785 0.809017 0
    outer loop
      vertex 5 9.83975 1.5
      vertex 6.69131 11.0686 -1.5
      vertex 5 9.83975 -1.5
    endloop
  endfacet
  facet normal -0.951057 0.309017 0
    outer loop
      vertex 9.13545 14.4326 -1.5
      vertex 9.78148 16.4209 1.5
      vertex 9.78148 16.4209 -1.5
    endloop
  endfacet
  facet normal -0.951057 0.309017 0
    outer loop
      vertex 9.78148 16.4209 1.5
      vertex 9.13545 14.4326 -1.5
      vertex 9.13545 14.4326 1.5
    endloop
  endfacet
  facet normal 0 1 -0
    outer loop
      vertex 1.04528 8.55478 -1.5
      vertex -1.04528 8.55478 1.5
      vertex 1.04528 8.55478 1.5
    endloop
  endfacet
  facet normal 0 1 0
    outer loop
      vertex -1.04528 8.55478 1.5
      vertex 1.04528 8.55478 -1.5
      vertex -1.04528 8.55478 -1.5
    endloop
  endfacet
  facet normal 0.866026 0.5 0
    outer loop
      vertex -8.09017 12.6221 1.5
      vertex -9.13545 14.4326 -1.5
      vertex -9.13545 14.4326 1.5
    endloop
  endfacet
  facet normal 0.866026 0.5 0
    outer loop
      vertex -9.13545 14.4326 -1.5
      vertex -8.09017 12.6221 1.5
      vertex -8.09017 12.6221 -1.5
    endloop
  endfacet
  facet normal -0.743145 0.669131 0
    outer loop
      vertex 6.69131 11.0686 -1.5
      vertex 8.09017 12.6221 1.5
      vertex 8.09017 12.6221 -1.5
    endloop
  endfacet
  facet normal -0.743145 0.669131 0
    outer loop
      vertex 8.09017 12.6221 1.5
      vertex 6.69131 11.0686 -1.5
      vertex 6.69131 11.0686 1.5
    endloop
  endfacet
  facet normal 0.207911 0.978148 -0
    outer loop
      vertex -1.04528 8.55478 -1.5
      vertex -3.09017 8.98943 1.5
      vertex -1.04528 8.55478 1.5
    endloop
  endfacet
  facet normal 0.207911 0.978148 0
    outer loop
      vertex -3.09017 8.98943 1.5
      vertex -1.04528 8.55478 -1.5
      vertex -3.09017 8.98943 -1.5
    endloop
  endfacet
  facet normal 0.406737 0.913545 -0
    outer loop
      vertex -3.09017 8.98943 -1.5
      vertex -5 9.83975 1.5
      vertex -3.09017 8.98943 1.5
    endloop
  endfacet
  facet normal 0.406737 0.913545 0
    outer loop
      vertex -5 9.83975 1.5
      vertex -3.09017 8.98943 -1.5
      vertex -5 9.83975 -1.5
    endloop
  endfacet
  facet normal -0.994522 -0.104528 0
    outer loop
      vertex -4 0 -1.5
      vertex -4.21852 2.07912 1.5
      vertex -4.21852 2.07912 -1.5
    endloop
  endfacet
  facet normal -0.994522 -0.104528 0
    outer loop
      vertex -4.21852 2.07912 1.5
      vertex -4 0 -1.5
      vertex -4 0 1.5
    endloop
  endfacet
  facet normal 0 -1 0
    outer loop
      vertex -15.0453 9.94522 -1.5
      vertex -12.9547 9.94522 1.5
      vertex -15.0453 9.94522 1.5
    endloop
  endfacet
  facet normal 0 -1 -0
    outer loop
      vertex -12.9547 9.94522 1.5
      vertex -15.0453 9.94522 -1.5
      vertex -12.9547 9.94522 -1.5
    endloop
  endfacet
  facet normal 0 1 -0
    outer loop
      vertex -12.9547 -9.94522 -1.5
      vertex -15.0453 -9.94522 1.5
      vertex -12.9547 -9.94522 1.5
    endloop
  endfacet
  facet normal 0 1 0
    outer loop
      vertex -15.0453 -9.94522 1.5
      vertex -12.9547 -9.94522 -1.5
      vertex -15.0453 -9.94522 -1.5
    endloop
  endfacet
  facet normal -0.743145 -0.669131 0
    outer loop
      vertex -5.90983 5.87785 -1.5
      vertex -7.30869 7.43145 1.5
      vertex -7.30869 7.43145 -1.5
    endloop
  endfacet
  facet normal -0.743145 -0.669131 0
    outer loop
      vertex -7.30869 7.43145 1.5
      vertex -5.90983 5.87785 -1.5
      vertex -5.90983 5.87785 1.5
    endloop
  endfacet
  facet normal -0.866026 -0.5 0
    outer loop
      vertex -4.86454 4.06737 -1.5
      vertex -5.90983 5.87785 1.5
      vertex -5.90983 5.87785 -1.5
    endloop
  endfacet
  facet normal -0.866026 -0.5 0
    outer loop
      vertex -5.90983 5.87785 1.5
      vertex -4.86454 4.06737 -1.5
      vertex -4.86454 4.06737 1.5
    endloop
  endfacet
  facet normal -0.951057 -0.309017 0
    outer loop
      vertex -4.21852 2.07912 -1.5
      vertex -4.86454 4.06737 1.5
      vertex -4.86454 4.06737 -1.5
    endloop
  endfacet
  facet normal -0.951057 -0.309017 0
    outer loop
      vertex -4.86454 4.06737 1.5
      vertex -4.21852 2.07912 -1.5
      vertex -4.21852 2.07912 1.5
    endloop
  endfacet
  facet normal -0.406737 -0.913545 0
    outer loop
      vertex -10.9098 9.51056 -1.5
      vertex -9 8.66025 1.5
      vertex -10.9098 9.51056 1.5
    endloop
  endfacet
  facet normal -0.406737 -0.913545 -0
    outer loop
      vertex -9 8.66025 1.5
      vertex -10.9098 9.51056 -1.5
      vertex -9 8.66025 -1.5
    endloop
  endfacet
  facet normal -0.207911 -0.978148 0
    outer loop
      vertex -12.9547 9.94522 -1.5
      vertex -10.9098 9.51056 1.5
      vertex -12.9547 9.94522 1.5
    endloop
  endfacet
  facet normal -0.207911 -0.978148 -0
    outer loop
      vertex -10.9098 9.51056 1.5
      vertex -12.9547 9.94522 -1.5
      vertex -10.9098 9.51056 -1.5
    endloop
  endfacet
  facet normal -0.587785 -0.809017 0
    outer loop
      vertex -9 8.66025 -1.5
      vertex -7.30869 7.43145 1.5
      vertex -9 8.66025 1.5
    endloop
  endfacet
  facet normal -0.587785 -0.809017 -0
    outer loop
      vertex -7.30869 7.43145 1.5
      vertex -9 8.66025 -1.5
      vertex -7.30869 7.43145 -1.5
    endloop
  endfacet
  facet normal 0.207911 -0.978148 0
    outer loop
      vertex -16 9.74229 -1.5
      vertex -15.0453 9.94522 1.5
      vertex -16 9.74229 1.5
    endloop
  endfacet
  facet normal 0.207911 -0.978148 0
    outer loop
      vertex -15.0453 9.94522 1.5
      vertex -16 9.74229 -1.5
      vertex -15.0453 9.94522 -1.5
    endloop
  endfacet
  facet normal -0.994522 0.104528 0
    outer loop
      vertex -4.21852 -2.07912 -1.5
      vertex -4 0 1.5
      vertex -4 0 -1.5
    endloop
  endfacet
  facet normal -0.994522 0.104528 0
    outer loop
      vertex -4 0 1.5
      vertex -4.21852 -2.07912 -1.5
      vertex -4.21852 -2.07912 1.5
    endloop
  endfacet
  facet normal -0.207911 0.978148 0
    outer loop
      vertex -10.9098 -9.51056 -1.5
      vertex -12.9547 -9.94522 1.5
      vertex -10.9098 -9.51056 1.5
    endloop
  endfacet
  facet normal -0.207911 0.978148 0
    outer loop
      vertex -12.9547 -9.94522 1.5
      vertex -10.9098 -9.51056 -1.5
      vertex -12.9547 -9.94522 -1.5
    endloop
  endfacet
  facet normal -0.866026 0.5 0
    outer loop
      vertex -5.90983 -5.87785 -1.5
      vertex -4.86454 -4.06737 1.5
      vertex -4.86454 -4.06737 -1.5
    endloop
  endfacet
  facet normal -0.866026 0.5 0
    outer loop
      vertex -4.86454 -4.06737 1.5
      vertex -5.90983 -5.87785 -1.5
      vertex -5.90983 -5.87785 1.5
    endloop
  endfacet
  facet normal -0.587785 0.809017 0
    outer loop
      vertex -7.30869 -7.43145 -1.5
      vertex -9 -8.66025 1.5
      vertex -7.30869 -7.43145 1.5
    endloop
  endfacet
  facet normal -0.587785 0.809017 0
    outer loop
      vertex -9 -8.66025 1.5
      vertex -7.30869 -7.43145 -1.5
      vertex -9 -8.66025 -1.5
    endloop
  endfacet
  facet normal -0.406737 0.913545 0
    outer loop
      vertex -9 -8.66025 -1.5
      vertex -10.9098 -9.51056 1.5
      vertex -9 -8.66025 1.5
    endloop
  endfacet
  facet normal -0.406737 0.913545 0
    outer loop
      vertex -10.9098 -9.51056 1.5
      vertex -9 -8.66025 -1.5
      vertex -10.9098 -9.51056 -1.5
    endloop
  endfacet
  facet normal -0.951057 0.309017 0
    outer loop
      vertex -4.86454 -4.06737 -1.5
      vertex -4.21852 -2.07912 1.5
      vertex -4.21852 -2.07912 -1.5
    endloop
  endfacet
  facet normal -0.951057 0.309017 0
    outer loop
      vertex -4.21852 -2.07912 1.5
      vertex -4.86454 -4.06737 -1.5
      vertex -4.86454 -4.06737 1.5
    endloop
  endfacet
  facet normal -0.743145 0.669131 0
    outer loop
      vertex -7.30869 -7.43145 -1.5
      vertex -5.90983 -5.87785 1.5
      vertex -5.90983 -5.87785 -1.5
    endloop
  endfacet
  facet normal -0.743145 0.669131 0
    outer loop
      vertex -5.90983 -5.87785 1.5
      vertex -7.30869 -7.43145 -1.5
      vertex -7.30869 -7.43145 1.5
    endloop
  endfacet
  facet normal 0.207911 0.978148 -0
    outer loop
      vertex -15.0453 -9.94522 -1.5
      vertex -16 -9.74229 1.5
      vertex -15.0453 -9.94522 1.5
    endloop
  endfacet
  facet normal 0.207911 0.978148 0
    outer loop
      vertex -16 -9.74229 1.5
      vertex -15.0453 -9.94522 -1.5
      vertex -16 -9.74229 -1.5
    endloop
  endfacet
endsolid OpenSCAD_Model
