solid OpenSCAD_Model
  facet normal -1 0 0
    outer loop
      vertex -70 -80 -3
      vertex -70 80 3
      vertex -70 80 -3
    endloop
  endfacet
  facet normal -1 -0 0
    outer loop
      vertex -70 80 3
      vertex -70 -80 -3
      vertex -70 -80 3
    endloop
  endfacet
  facet normal -0 0 1
    outer loop
      vertex -66 58 3
      vertex -44 -58 3
      vertex -44 58 3
    endloop
  endfacet
  facet normal 0 0 1
    outer loop
      vertex -44 -58 3
      vertex -66 58 3
      vertex -66 -58 3
    endloop
  endfacet
  facet normal -0 0 1
    outer loop
      vertex 44 58 3
      vertex 66 -58 3
      vertex 66 58 3
    endloop
  endfacet
  facet normal 0 0 1
    outer loop
      vertex 66 -58 3
      vertex 44 58 3
      vertex 44 -58 3
    endloop
  endfacet
  facet normal 0 0 1
    outer loop
      vertex 66 58 3
      vertex 70 80 3
      vertex 66 76 3
    endloop
  endfacet
  facet normal 0 0 1
    outer loop
      vertex 70 80 3
      vertex 44 76 3
      vertex 66 76 3
    endloop
  endfacet
  facet normal 0 0 1
    outer loop
      vertex -44 58 3
      vertex 44 58 3
      vertex 44 76 3
    endloop
  endfacet
  facet normal 0 0 1
    outer loop
      vertex 44 58 3
      vertex -44 58 3
      vertex 44 -58 3
    endloop
  endfacet
  facet normal 0 0 1
    outer loop
      vertex -44 58 3
      vertex 44 76 3
      vertex -44 76 3
    endloop
  endfacet
  facet normal 0 0 1
    outer loop
      vertex 70 80 3
      vertex -44 76 3
      vertex 44 76 3
    endloop
  endfacet
  facet normal -0 0 1
    outer loop
      vertex -70 80 3
      vertex -44 76 3
      vertex 70 80 3
    endloop
  endfacet
  facet normal 0 0 1
    outer loop
      vertex -70 80 3
      vertex -66 58 3
      vertex -66 76 3
    endloop
  endfacet
  facet normal 0 0 1
    outer loop
      vertex -66 58 3
      vertex -70 80 3
      vertex -66 -58 3
    endloop
  endfacet
  facet normal 0 0 1
    outer loop
      vertex -70 -80 3
      vertex -66 -58 3
      vertex -70 80 3
    endloop
  endfacet
  facet normal 0 0 1
    outer loop
      vertex -44 76 3
      vertex -70 80 3
      vertex -66 76 3
    endloop
  endfacet
  facet normal 0 0 1
    outer loop
      vertex 70 80 3
      vertex 66 58 3
      vertex 70 -80 3
    endloop
  endfacet
  facet normal -0 0 1
    outer loop
      vertex 66 -58 3
      vertex 70 -80 3
      vertex 66 58 3
    endloop
  endfacet
  facet normal -0 0 1
    outer loop
      vertex 66 -76 3
      vertex 70 -80 3
      vertex 66 -58 3
    endloop
  endfacet
  facet normal -0 0 1
    outer loop
      vertex 44 -76 3
      vertex 70 -80 3
      vertex 66 -76 3
    endloop
  endfacet
  facet normal 0 0 1
    outer loop
      vertex -44 -58 3
      vertex 44 -58 3
      vertex -44 58 3
    endloop
  endfacet
  facet normal 0 0 1
    outer loop
      vertex 44 -58 3
      vertex -44 -58 3
      vertex 44 -76 3
    endloop
  endfacet
  facet normal 0 0 1
    outer loop
      vertex -44 -76 3
      vertex 44 -76 3
      vertex -44 -58 3
    endloop
  endfacet
  facet normal -0 0 1
    outer loop
      vertex -44 -76 3
      vertex 70 -80 3
      vertex 44 -76 3
    endloop
  endfacet
  facet normal 0 0 1
    outer loop
      vertex -70 -80 3
      vertex -44 -76 3
      vertex -66 -76 3
    endloop
  endfacet
  facet normal 0 0 1
    outer loop
      vertex -44 -76 3
      vertex -70 -80 3
      vertex 70 -80 3
    endloop
  endfacet
  facet normal 0 0 1
    outer loop
      vertex -66 -58 3
      vertex -70 -80 3
      vertex -66 -76 3
    endloop
  endfacet
  facet normal 1 -0 0
    outer loop
      vertex 70 -80 3
      vertex 70 80 -3
      vertex 70 80 3
    endloop
  endfacet
  facet normal 1 0 0
    outer loop
      vertex 70 80 -3
      vertex 70 -80 3
      vertex 70 -80 -3
    endloop
  endfacet
  facet normal 0 1 -0
    outer loop
      vertex 70 80 -3
      vertex -70 80 3
      vertex 70 80 3
    endloop
  endfacet
  facet normal 0 1 0
    outer loop
      vertex -70 80 3
      vertex 70 80 -3
      vertex -70 80 -3
    endloop
  endfacet
  facet normal 0 0 -1
    outer loop
      vertex -66 -58 -3
      vertex -44 58 -3
      vertex -44 -58 -3
    endloop
  endfacet
  facet normal -0 0 -1
    outer loop
      vertex -44 58 -3
      vertex -66 -58 -3
      vertex -66 58 -3
    endloop
  endfacet
  facet normal 0 0 -1
    outer loop
      vertex 44 -58 -3
      vertex 66 58 -3
      vertex 66 -58 -3
    endloop
  endfacet
  facet normal -0 0 -1
    outer loop
      vertex 66 58 -3
      vertex 44 -58 -3
      vertex 44 58 -3
    endloop
  endfacet
  facet normal 0 0 -1
    outer loop
      vertex 66 -58 -3
      vertex 70 -80 -3
      vertex 66 -76 -3
    endloop
  endfacet
  facet normal 0 0 -1
    outer loop
      vertex 70 -80 -3
      vertex 44 -76 -3
      vertex 66 -76 -3
    endloop
  endfacet
  facet normal 0 0 -1
    outer loop
      vertex -44 -58 -3
      vertex 44 -58 -3
      vertex 44 -76 -3
    endloop
  endfacet
  facet normal 0 0 -1
    outer loop
      vertex 44 -58 -3
      vertex -44 -58 -3
      vertex 44 58 -3
    endloop
  endfacet
  facet normal 0 0 -1
    outer loop
      vertex -44 -58 -3
      vertex 44 -76 -3
      vertex -44 -76 -3
    endloop
  endfacet
  facet normal 0 0 -1
    outer loop
      vertex 70 -80 -3
      vertex -44 -76 -3
      vertex 44 -76 -3
    endloop
  endfacet
  facet normal 0 0 -1
    outer loop
      vertex -70 -80 -3
      vertex -44 -76 -3
      vertex 70 -80 -3
    endloop
  endfacet
  facet normal 0 0 -1
    outer loop
      vertex -70 -80 -3
      vertex -66 -58 -3
      vertex -66 -76 -3
    endloop
  endfacet
  facet normal -0 0 -1
    outer loop
      vertex -66 -58 -3
      vertex -70 -80 -3
      vertex -66 58 -3
    endloop
  endfacet
  facet normal 0 0 -1
    outer loop
      vertex -70 80 -3
      vertex -66 58 -3
      vertex -70 -80 -3
    endloop
  endfacet
  facet normal -0 0 -1
    outer loop
      vertex -44 -76 -3
      vertex -70 -80 -3
      vertex -66 -76 -3
    endloop
  endfacet
  facet normal 0 0 -1
    outer loop
      vertex 70 -80 -3
      vertex 66 -58 -3
      vertex 70 80 -3
    endloop
  endfacet
  facet normal 0 0 -1
    outer loop
      vertex 66 58 -3
      vertex 70 80 -3
      vertex 66 -58 -3
    endloop
  endfacet
  facet normal 0 0 -1
    outer loop
      vertex 66 76 -3
      vertex 70 80 -3
      vertex 66 58 -3
    endloop
  endfacet
  facet normal 0 0 -1
    outer loop
      vertex 44 76 -3
      vertex 70 80 -3
      vertex 66 76 -3
    endloop
  endfacet
  facet normal 0 0 -1
    outer loop
      vertex -44 58 -3
      vertex 44 58 -3
      vertex -44 -58 -3
    endloop
  endfacet
  facet normal 0 0 -1
    outer loop
      vertex 44 58 -3
      vertex -44 58 -3
      vertex 44 76 -3
    endloop
  endfacet
  facet normal 0 0 -1
    outer loop
      vertex -44 76 -3
      vertex 44 76 -3
      vertex -44 58 -3
    endloop
  endfacet
  facet normal 0 0 -1
    outer loop
      vertex -44 76 -3
      vertex 70 80 -3
      vertex 44 76 -3
    endloop
  endfacet
  facet normal 0 0 -1
    outer loop
      vertex -70 80 -3
      vertex -44 76 -3
      vertex -66 76 -3
    endloop
  endfacet
  facet normal 0 0 -1
    outer loop
      vertex -44 76 -3
      vertex -70 80 -3
      vertex 70 80 -3
    endloop
  endfacet
  facet normal 0 0 -1
    outer loop
      vertex -66 58 -3
      vertex -70 80 -3
      vertex -66 76 -3
    endloop
  endfacet
  facet normal 0 -1 0
    outer loop
      vertex -70 -80 -3
      vertex 70 -80 3
      vertex -70 -80 3
    endloop
  endfacet
  facet normal 0 -1 -0
    outer loop
      vertex 70 -80 3
      vertex -70 -80 -3
      vertex 70 -80 -3
    endloop
  endfacet
  facet normal 1 -0 0
    outer loop
      vertex 44 58 3
      vertex 44 76 -3
      vertex 44 76 3
    endloop
  endfacet
  facet normal 1 0 0
    outer loop
      vertex 44 76 -3
      vertex 44 58 3
      vertex 44 58 -3
    endloop
  endfacet
  facet normal -1 0 0
    outer loop
      vertex 66 58 -3
      vertex 66 76 3
      vertex 66 76 -3
    endloop
  endfacet
  facet normal -1 -0 0
    outer loop
      vertex 66 76 3
      vertex 66 58 -3
      vertex 66 58 3
    endloop
  endfacet
  facet normal 0 -1 0
    outer loop
      vertex 44 76 -3
      vertex 66 76 3
      vertex 44 76 3
    endloop
  endfacet
  facet normal 0 -1 -0
    outer loop
      vertex 66 76 3
      vertex 44 76 -3
      vertex 66 76 -3
    endloop
  endfacet
  facet normal 0 1 -0
    outer loop
      vertex 66 58 -3
      vertex 44 58 3
      vertex 66 58 3
    endloop
  endfacet
  facet normal 0 1 0
    outer loop
      vertex 44 58 3
      vertex 66 58 -3
      vertex 44 58 -3
    endloop
  endfacet
  facet normal 1 -0 0
    outer loop
      vertex -66 58 3
      vertex -66 76 -3
      vertex -66 76 3
    endloop
  endfacet
  facet normal 1 0 0
    outer loop
      vertex -66 76 -3
      vertex -66 58 3
      vertex -66 58 -3
    endloop
  endfacet
  facet normal -1 0 0
    outer loop
      vertex -44 58 -3
      vertex -44 76 3
      vertex -44 76 -3
    endloop
  endfacet
  facet normal -1 -0 0
    outer loop
      vertex -44 76 3
      vertex -44 58 -3
      vertex -44 58 3
    endloop
  endfacet
  facet normal 0 1 -0
    outer loop
      vertex -44 58 -3
      vertex -66 58 3
      vertex -44 58 3
    endloop
  endfacet
  facet normal 0 1 0
    outer loop
      vertex -66 58 3
      vertex -44 58 -3
      vertex -66 58 -3
    endloop
  endfacet
  facet normal 0 -1 0
    outer loop
      vertex -66 76 -3
      vertex -44 76 3
      vertex -66 76 3
    endloop
  endfacet
  facet normal 0 -1 -0
    outer loop
      vertex -44 76 3
      vertex -66 76 -3
      vertex -44 76 -3
    endloop
  endfacet
  facet normal 1 -0 0
    outer loop
      vertex 44 -76 3
      vertex 44 -58 -3
      vertex 44 -58 3
    endloop
  endfacet
  facet normal 1 0 0
    outer loop
      vertex 44 -58 -3
      vertex 44 -76 3
      vertex 44 -76 -3
    endloop
  endfacet
  facet normal -1 0 0
    outer loop
      vertex 66 -76 -3
      vertex 66 -58 3
      vertex 66 -58 -3
    endloop
  endfacet
  facet normal -1 -0 0
    outer loop
      vertex 66 -58 3
      vertex 66 -76 -3
      vertex 66 -76 3
    endloop
  endfacet
  facet normal 0 1 -0
    outer loop
      vertex 66 -76 -3
      vertex 44 -76 3
      vertex 66 -76 3
    endloop
  endfacet
  facet normal 0 1 0
    outer loop
      vertex 44 -76 3
      vertex 66 -76 -3
      vertex 44 -76 -3
    endloop
  endfacet
  facet normal 0 -1 0
    outer loop
      vertex 44 -58 -3
      vertex 66 -58 3
      vertex 44 -58 3
    endloop
  endfacet
  facet normal 0 -1 -0
    outer loop
      vertex 66 -58 3
      vertex 44 -58 -3
      vertex 66 -58 -3
    endloop
  endfacet
  facet normal 1 -0 0
    outer loop
      vertex -66 -76 3
      vertex -66 -58 -3
      vertex -66 -58 3
    endloop
  endfacet
  facet normal 1 0 0
    outer loop
      vertex -66 -58 -3
      vertex -66 -76 3
      vertex -66 -76 -3
    endloop
  endfacet
  facet normal -1 0 0
    outer loop
      vertex -44 -76 -3
      vertex -44 -58 3
      vertex -44 -58 -3
    endloop
  endfacet
  facet normal -1 -0 0
    outer loop
      vertex -44 -58 3
      vertex -44 -76 -3
      vertex -44 -76 3
    endloop
  endfacet
  facet normal 0 1 -0
    outer loop
      vertex -44 -76 -3
      vertex -66 -76 3
      vertex -44 -76 3
    endloop
  endfacet
  facet normal 0 1 0
    outer loop
      vertex -66 -76 3
      vertex -44 -76 -3
      vertex -66 -76 -3
    endloop
  endfacet
  facet normal 0 -1 0
    outer loop
      vertex -66 -58 -3
      vertex -44 -58 3
      vertex -66 -58 3
    endloop
  endfacet
  facet normal 0 -1 -0
    outer loop
      vertex -44 -58 3
      vertex -66 -58 -3
      vertex -44 -58 -3
    endloop
  endfacet
endsolid OpenSCAD_Model
