solid OpenSCAD_Model
  facet normal 0 -0.309012 0.951058
    outer loop
      vertex -10 11.7634 -10.4271
      vertex 10 11.7214 -10.4407
      vertex 10 11.7634 -10.4271
    endloop
  endfacet
  facet normal -1.29417e-008 -0.309017 0.951056
    outer loop
      vertex 10 11.7214 -10.4407
      vertex -10 11.7634 -10.4271
      vertex -10 10.042 -10.9864
    endloop
  endfacet
  facet normal -5.71855e-008 -0.309017 0.951057
    outer loop
      vertex -10 10.042 -10.9864
      vertex 10 10 -11
      vertex 10 11.7214 -10.4407
    endloop
  endfacet
  facet normal -4.535e-008 -0.309012 0.951058
    outer loop
      vertex 10 10 -11
      vertex -10 10.042 -10.9864
      vertex -10 10 -11
    endloop
  endfacet
  facet normal 3.35981e-008 0.309017 -0.951057
    outer loop
      vertex -10 10 -5
      vertex 10 9.95802 -5.01364
      vertex -10 8.27863 -5.55931
    endloop
  endfacet
  facet normal 4.53498e-008 0.309022 -0.951055
    outer loop
      vertex 10 9.95802 -5.01364
      vertex -10 10 -5
      vertex 10 10 -5
    endloop
  endfacet
  facet normal 0 -0.809017 0.587785
    outer loop
      vertex -10 11.7634 -10.4271
      vertex 10 12.8532 -8.92705
      vertex -10 12.8532 -8.92705
    endloop
  endfacet
  facet normal 0 -0.809017 0.587785
    outer loop
      vertex 10 12.8532 -8.92705
      vertex -10 11.7634 -10.4271
      vertex 10 11.7634 -10.4271
    endloop
  endfacet
  facet normal -1.02863e-008 -0.309017 -0.951056
    outer loop
      vertex -10 11.7214 -5.55931
      vertex 10 11.7634 -5.57295
      vertex 10 10.042 -5.01364
    endloop
  endfacet
  facet normal -0 -0.309022 -0.951055
    outer loop
      vertex 10 11.7634 -5.57295
      vertex -10 11.7214 -5.55931
      vertex -10 11.7634 -5.57295
    endloop
  endfacet
  facet normal 0 -0.809017 -0.587785
    outer loop
      vertex -10 12.8532 -7.07295
      vertex 10 11.7634 -5.57295
      vertex -10 11.7634 -5.57295
    endloop
  endfacet
  facet normal 0 -0.809017 -0.587785
    outer loop
      vertex 10 11.7634 -5.57295
      vertex -10 12.8532 -7.07295
      vertex 10 12.8532 -7.07295
    endloop
  endfacet
  facet normal 0 -1 0
    outer loop
      vertex -10 12.8532 -8.92705
      vertex 10 12.8532 -7.07295
      vertex -10 12.8532 -7.07295
    endloop
  endfacet
  facet normal 0 -1 -0
    outer loop
      vertex 10 12.8532 -7.07295
      vertex -10 12.8532 -8.92705
      vertex 10 12.8532 -8.92705
    endloop
  endfacet
  facet normal -4.535e-008 0.309012 0.951058
    outer loop
      vertex -10 9.95802 -10.9864
      vertex 10 10 -11
      vertex -10 10 -11
    endloop
  endfacet
  facet normal -5.68261e-008 0.309017 0.951057
    outer loop
      vertex 10 10 -11
      vertex -10 9.95802 -10.9864
      vertex 10 8.27863 -10.4407
    endloop
  endfacet
  facet normal 4.53498e-008 -0.309022 -0.951055
    outer loop
      vertex -10 10 -5
      vertex 10 10.042 -5.01364
      vertex 10 10 -5
    endloop
  endfacet
  facet normal 3.39575e-008 -0.309017 -0.951057
    outer loop
      vertex 10 10.042 -5.01364
      vertex -10 10 -5
      vertex -10 11.7214 -5.55931
    endloop
  endfacet
  facet normal 0 0.809017 -0.587785
    outer loop
      vertex 10 7.14683 -7.07295
      vertex -10 8.23664 -5.57295
      vertex 10 8.23664 -5.57295
    endloop
  endfacet
  facet normal 0 0.809017 -0.587785
    outer loop
      vertex -10 8.23664 -5.57295
      vertex 10 7.14683 -7.07295
      vertex -10 7.14683 -7.07295
    endloop
  endfacet
  facet normal 0 0.309022 -0.951055
    outer loop
      vertex -10 8.27863 -5.55931
      vertex 10 8.23664 -5.57295
      vertex -10 8.23664 -5.57295
    endloop
  endfacet
  facet normal -1.06457e-008 0.309017 -0.951057
    outer loop
      vertex 10 8.23664 -5.57295
      vertex -10 8.27863 -5.55931
      vertex 10 9.95802 -5.01364
    endloop
  endfacet
  facet normal 0 1 -0
    outer loop
      vertex 10 7.14683 -8.92705
      vertex -10 7.14683 -7.07295
      vertex 10 7.14683 -7.07295
    endloop
  endfacet
  facet normal 0 1 0
    outer loop
      vertex -10 7.14683 -7.07295
      vertex 10 7.14683 -8.92705
      vertex -10 7.14683 -8.92705
    endloop
  endfacet
  facet normal -1.25823e-008 0.309017 0.951056
    outer loop
      vertex -10 8.23664 -10.4271
      vertex 10 8.27863 -10.4407
      vertex -10 9.95802 -10.9864
    endloop
  endfacet
  facet normal 0 0.309012 0.951058
    outer loop
      vertex 10 8.27863 -10.4407
      vertex -10 8.23664 -10.4271
      vertex 10 8.23664 -10.4271
    endloop
  endfacet
  facet normal 0 0.809017 0.587785
    outer loop
      vertex 10 8.23664 -10.4271
      vertex -10 7.14683 -8.92705
      vertex 10 7.14683 -8.92705
    endloop
  endfacet
  facet normal 0 0.809017 0.587785
    outer loop
      vertex -10 7.14683 -8.92705
      vertex 10 8.23664 -10.4271
      vertex -10 8.23664 -10.4271
    endloop
  endfacet
  facet normal 0.309017 -0.951057 0
    outer loop
      vertex -1.76336 0.427052 -16
      vertex 0 1 0
      vertex -1.76336 0.427052 0
    endloop
  endfacet
  facet normal 0.309017 -0.951057 0
    outer loop
      vertex 0 1 0
      vertex -1.76336 0.427052 -16
      vertex 0 1 -16
    endloop
  endfacet
  facet normal -1 0 0
    outer loop
      vertex 2.85317 -2.92705 -16
      vertex 2.85317 -1.07295 0
      vertex 2.85317 -1.07295 -16
    endloop
  endfacet
  facet normal -1 -0 0
    outer loop
      vertex 2.85317 -1.07295 0
      vertex 2.85317 -2.92705 -16
      vertex 2.85317 -2.92705 0
    endloop
  endfacet
  facet normal 1 -0 0
    outer loop
      vertex -2.85317 -2.92705 0
      vertex -2.85317 -1.07295 -16
      vertex -2.85317 -1.07295 0
    endloop
  endfacet
  facet normal 1 0 0
    outer loop
      vertex -2.85317 -1.07295 -16
      vertex -2.85317 -2.92705 0
      vertex -2.85317 -2.92705 -16
    endloop
  endfacet
  facet normal 0.809017 -0.587785 0
    outer loop
      vertex -2.85317 -1.07295 0
      vertex -1.76336 0.427052 -16
      vertex -1.76336 0.427052 0
    endloop
  endfacet
  facet normal 0.809017 -0.587785 0
    outer loop
      vertex -1.76336 0.427052 -16
      vertex -2.85317 -1.07295 0
      vertex -2.85317 -1.07295 -16
    endloop
  endfacet
  facet normal 0.809017 0.587785 0
    outer loop
      vertex -1.76336 -4.42705 0
      vertex -2.85317 -2.92705 -16
      vertex -2.85317 -2.92705 0
    endloop
  endfacet
  facet normal 0.809017 0.587785 0
    outer loop
      vertex -2.85317 -2.92705 -16
      vertex -1.76336 -4.42705 0
      vertex -1.76336 -4.42705 -16
    endloop
  endfacet
  facet normal 0.309017 0.951056 -0
    outer loop
      vertex 0 -5 -16
      vertex -1.76336 -4.42705 0
      vertex 0 -5 0
    endloop
  endfacet
  facet normal 0.309017 0.951056 0
    outer loop
      vertex -1.76336 -4.42705 0
      vertex 0 -5 -16
      vertex -1.76336 -4.42705 -16
    endloop
  endfacet
  facet normal -0.309017 -0.951057 0
    outer loop
      vertex 0 1 -16
      vertex 1.76336 0.427052 0
      vertex 0 1 0
    endloop
  endfacet
  facet normal -0.309017 -0.951057 -0
    outer loop
      vertex 1.76336 0.427052 0
      vertex 0 1 -16
      vertex 1.76336 0.427052 -16
    endloop
  endfacet
  facet normal -0.809017 -0.587785 0
    outer loop
      vertex 2.85317 -1.07295 -16
      vertex 1.76336 0.427052 0
      vertex 1.76336 0.427052 -16
    endloop
  endfacet
  facet normal -0.809017 -0.587785 0
    outer loop
      vertex 1.76336 0.427052 0
      vertex 2.85317 -1.07295 -16
      vertex 2.85317 -1.07295 0
    endloop
  endfacet
  facet normal -0.809017 0.587785 0
    outer loop
      vertex 1.76336 -4.42705 -16
      vertex 2.85317 -2.92705 0
      vertex 2.85317 -2.92705 -16
    endloop
  endfacet
  facet normal -0.809017 0.587785 0
    outer loop
      vertex 2.85317 -2.92705 0
      vertex 1.76336 -4.42705 -16
      vertex 1.76336 -4.42705 0
    endloop
  endfacet
  facet normal -0.309017 0.951056 0
    outer loop
      vertex 1.76336 -4.42705 -16
      vertex 0 -5 0
      vertex 1.76336 -4.42705 0
    endloop
  endfacet
  facet normal -0.309017 0.951056 0
    outer loop
      vertex 0 -5 0
      vertex 1.76336 -4.42705 -16
      vertex 0 -5 -16
    endloop
  endfacet
  facet normal -1 0 0
    outer loop
      vertex -10 15 -16
      vertex -10 12.8532 -8.92705
      vertex -10 15 0
    endloop
  endfacet
  facet normal -1 0 0
    outer loop
      vertex -10 15 -16
      vertex -10 11.7634 -10.4271
      vertex -10 12.8532 -8.92705
    endloop
  endfacet
  facet normal -1 0 0
    outer loop
      vertex -10 15 -16
      vertex -10 10.042 -10.9864
      vertex -10 11.7634 -10.4271
    endloop
  endfacet
  facet normal -1 0 0
    outer loop
      vertex -10 15 -16
      vertex -10 10 -11
      vertex -10 10.042 -10.9864
    endloop
  endfacet
  facet normal -1 0 0
    outer loop
      vertex -10 15 -16
      vertex -10 9.95802 -10.9864
      vertex -10 10 -11
    endloop
  endfacet
  facet normal -1 0 0
    outer loop
      vertex -10 15 -16
      vertex -10 8.23664 -10.4271
      vertex -10 9.95802 -10.9864
    endloop
  endfacet
  facet normal -1 -0 0
    outer loop
      vertex -10 7.14683 -8.92705
      vertex -10 -19 -16
      vertex -10 7.14683 -7.07295
    endloop
  endfacet
  facet normal -1 -0 0
    outer loop
      vertex -10 8.23664 -10.4271
      vertex -10 -19 -16
      vertex -10 7.14683 -8.92705
    endloop
  endfacet
  facet normal -1 0 0
    outer loop
      vertex -10 -19 -16
      vertex -10 8.23664 -10.4271
      vertex -10 15 -16
    endloop
  endfacet
  facet normal -1 0 0
    outer loop
      vertex -10 12.8532 -7.07295
      vertex -10 15 0
      vertex -10 12.8532 -8.92705
    endloop
  endfacet
  facet normal -1 0 0
    outer loop
      vertex -10 11.7634 -5.57295
      vertex -10 15 0
      vertex -10 12.8532 -7.07295
    endloop
  endfacet
  facet normal -1 0 0
    outer loop
      vertex -10 11.7214 -5.55931
      vertex -10 15 0
      vertex -10 11.7634 -5.57295
    endloop
  endfacet
  facet normal -1 0 0
    outer loop
      vertex -10 10 -5
      vertex -10 15 0
      vertex -10 11.7214 -5.55931
    endloop
  endfacet
  facet normal -1 0 0
    outer loop
      vertex -10 8.27863 -5.55931
      vertex -10 15 0
      vertex -10 10 -5
    endloop
  endfacet
  facet normal -1 0 0
    outer loop
      vertex -10 8.23664 -5.57295
      vertex -10 15 0
      vertex -10 8.27863 -5.55931
    endloop
  endfacet
  facet normal -1 0 0
    outer loop
      vertex -10 -19 0
      vertex -10 7.14683 -7.07295
      vertex -10 -19 -16
    endloop
  endfacet
  facet normal -1 0 0
    outer loop
      vertex -10 7.14683 -7.07295
      vertex -10 -19 0
      vertex -10 8.23664 -5.57295
    endloop
  endfacet
  facet normal -1 0 0
    outer loop
      vertex -10 8.23664 -5.57295
      vertex -10 -19 0
      vertex -10 15 0
    endloop
  endfacet
  facet normal -0 0 1
    outer loop
      vertex 2.85317 -2.92705 0
      vertex 10 -19 0
      vertex 10 15 0
    endloop
  endfacet
  facet normal 0 0 1
    outer loop
      vertex 2.85317 -2.92705 0
      vertex 10 15 0
      vertex 2.85317 -1.07295 0
    endloop
  endfacet
  facet normal 0 0 1
    outer loop
      vertex 10 15 0
      vertex 1.76336 0.427052 0
      vertex 2.85317 -1.07295 0
    endloop
  endfacet
  facet normal 0 0 1
    outer loop
      vertex 10 15 0
      vertex 0 1 0
      vertex 1.76336 0.427052 0
    endloop
  endfacet
  facet normal -0 0 1
    outer loop
      vertex -10 15 0
      vertex 0 1 0
      vertex 10 15 0
    endloop
  endfacet
  facet normal 0 0 1
    outer loop
      vertex -10 -19 0
      vertex -2.85317 -2.92705 0
      vertex -2.85317 -1.07295 0
    endloop
  endfacet
  facet normal 0 0 1
    outer loop
      vertex 0 1 0
      vertex -10 15 0
      vertex -1.76336 0.427052 0
    endloop
  endfacet
  facet normal 0 0 1
    outer loop
      vertex -10 15 0
      vertex -2.85317 -1.07295 0
      vertex -1.76336 0.427052 0
    endloop
  endfacet
  facet normal 0 0 1
    outer loop
      vertex -10 -19 0
      vertex -2.85317 -1.07295 0
      vertex -10 15 0
    endloop
  endfacet
  facet normal 0 0 1
    outer loop
      vertex -2.85317 -2.92705 0
      vertex -10 -19 0
      vertex -3 -13.5 0
    endloop
  endfacet
  facet normal 0 0 1
    outer loop
      vertex -3 -13.5 0
      vertex -10 -19 0
      vertex -3 -19 0
    endloop
  endfacet
  facet normal 0 0 1
    outer loop
      vertex 10 -19 0
      vertex 3 -13.5 0
      vertex 3 -19 0
    endloop
  endfacet
  facet normal 0 0 1
    outer loop
      vertex 10 -19 0
      vertex 2.85317 -2.92705 0
      vertex 3 -13.5 0
    endloop
  endfacet
  facet normal -0 0 1
    outer loop
      vertex 1.76336 -4.42705 0
      vertex 3 -13.5 0
      vertex 2.85317 -2.92705 0
    endloop
  endfacet
  facet normal -0 0 1
    outer loop
      vertex 0 -5 0
      vertex 3 -13.5 0
      vertex 1.76336 -4.42705 0
    endloop
  endfacet
  facet normal 0 0 1
    outer loop
      vertex -3 -13.5 0
      vertex 0 -5 0
      vertex -1.76336 -4.42705 0
    endloop
  endfacet
  facet normal 0 0 1
    outer loop
      vertex -3 -13.5 0
      vertex -1.76336 -4.42705 0
      vertex -2.85317 -2.92705 0
    endloop
  endfacet
  facet normal 0 0 1
    outer loop
      vertex 0 -5 0
      vertex -3 -13.5 0
      vertex 3 -13.5 0
    endloop
  endfacet
  facet normal 1 0 0
    outer loop
      vertex 10 15 0
      vertex 10 12.8532 -7.07295
      vertex 10 15 -16
    endloop
  endfacet
  facet normal 1 0 0
    outer loop
      vertex 10 15 0
      vertex 10 11.7634 -5.57295
      vertex 10 12.8532 -7.07295
    endloop
  endfacet
  facet normal 1 0 0
    outer loop
      vertex 10 15 0
      vertex 10 10.042 -5.01364
      vertex 10 11.7634 -5.57295
    endloop
  endfacet
  facet normal 1 0 0
    outer loop
      vertex 10 15 0
      vertex 10 10 -5
      vertex 10 10.042 -5.01364
    endloop
  endfacet
  facet normal 1 0 0
    outer loop
      vertex 10 15 0
      vertex 10 9.95802 -5.01364
      vertex 10 10 -5
    endloop
  endfacet
  facet normal 1 0 0
    outer loop
      vertex 10 15 0
      vertex 10 8.23664 -5.57295
      vertex 10 9.95802 -5.01364
    endloop
  endfacet
  facet normal 1 0 0
    outer loop
      vertex 10 7.14683 -7.07295
      vertex 10 -19 0
      vertex 10 7.14683 -8.92705
    endloop
  endfacet
  facet normal 1 0 0
    outer loop
      vertex 10 8.23664 -5.57295
      vertex 10 -19 0
      vertex 10 7.14683 -7.07295
    endloop
  endfacet
  facet normal 1 -0 0
    outer loop
      vertex 10 -19 0
      vertex 10 8.23664 -5.57295
      vertex 10 15 0
    endloop
  endfacet
  facet normal 1 -0 0
    outer loop
      vertex 10 12.8532 -8.92705
      vertex 10 15 -16
      vertex 10 12.8532 -7.07295
    endloop
  endfacet
  facet normal 1 -0 0
    outer loop
      vertex 10 11.7634 -10.4271
      vertex 10 15 -16
      vertex 10 12.8532 -8.92705
    endloop
  endfacet
  facet normal 1 -0 0
    outer loop
      vertex 10 11.7214 -10.4407
      vertex 10 15 -16
      vertex 10 11.7634 -10.4271
    endloop
  endfacet
  facet normal 1 -0 0
    outer loop
      vertex 10 10 -11
      vertex 10 15 -16
      vertex 10 11.7214 -10.4407
    endloop
  endfacet
  facet normal 1 0 0
    outer loop
      vertex 10 8.27863 -10.4407
      vertex 10 15 -16
      vertex 10 10 -11
    endloop
  endfacet
  facet normal 1 0 0
    outer loop
      vertex 10 8.23664 -10.4271
      vertex 10 15 -16
      vertex 10 8.27863 -10.4407
    endloop
  endfacet
  facet normal 1 0 0
    outer loop
      vertex 10 -19 -16
      vertex 10 7.14683 -8.92705
      vertex 10 -19 0
    endloop
  endfacet
  facet normal 1 0 0
    outer loop
      vertex 10 7.14683 -8.92705
      vertex 10 -19 -16
      vertex 10 8.23664 -10.4271
    endloop
  endfacet
  facet normal 1 0 0
    outer loop
      vertex 10 8.23664 -10.4271
      vertex 10 -19 -16
      vertex 10 15 -16
    endloop
  endfacet
  facet normal 0 1 -0
    outer loop
      vertex 10 15 -16
      vertex -10 15 0
      vertex 10 15 0
    endloop
  endfacet
  facet normal 0 1 0
    outer loop
      vertex -10 15 0
      vertex 10 15 -16
      vertex -10 15 -16
    endloop
  endfacet
  facet normal 0 0 -1
    outer loop
      vertex -3 -19 -16
      vertex -10 -19 -16
      vertex -3 -13.5 -16
    endloop
  endfacet
  facet normal 0 0 -1
    outer loop
      vertex 3 -13.5 -16
      vertex 1.76336 -4.42705 -16
      vertex 2.85317 -2.92705 -16
    endloop
  endfacet
  facet normal 0 0 -1
    outer loop
      vertex 3 -13.5 -16
      vertex 0 -5 -16
      vertex 1.76336 -4.42705 -16
    endloop
  endfacet
  facet normal 0 0 -1
    outer loop
      vertex -3 -13.5 -16
      vertex 0 -5 -16
      vertex 3 -13.5 -16
    endloop
  endfacet
  facet normal -0 0 -1
    outer loop
      vertex 0 -5 -16
      vertex -3 -13.5 -16
      vertex -1.76336 -4.42705 -16
    endloop
  endfacet
  facet normal 0 0 -1
    outer loop
      vertex -10 -19 -16
      vertex -2.85317 -2.92705 -16
      vertex -3 -13.5 -16
    endloop
  endfacet
  facet normal -0 0 -1
    outer loop
      vertex -1.76336 -4.42705 -16
      vertex -3 -13.5 -16
      vertex -2.85317 -2.92705 -16
    endloop
  endfacet
  facet normal 0 0 -1
    outer loop
      vertex 3 -13.5 -16
      vertex 10 -19 -16
      vertex 3 -19 -16
    endloop
  endfacet
  facet normal 0 0 -1
    outer loop
      vertex 2.85317 -2.92705 -16
      vertex 10 -19 -16
      vertex 3 -13.5 -16
    endloop
  endfacet
  facet normal 0 0 -1
    outer loop
      vertex 10 -19 -16
      vertex 2.85317 -2.92705 -16
      vertex 10 15 -16
    endloop
  endfacet
  facet normal 0 0 -1
    outer loop
      vertex 2.85317 -1.07295 -16
      vertex 10 15 -16
      vertex 2.85317 -2.92705 -16
    endloop
  endfacet
  facet normal 0 0 -1
    outer loop
      vertex 1.76336 0.427052 -16
      vertex 10 15 -16
      vertex 2.85317 -1.07295 -16
    endloop
  endfacet
  facet normal 0 0 -1
    outer loop
      vertex 0 1 -16
      vertex 10 15 -16
      vertex 1.76336 0.427052 -16
    endloop
  endfacet
  facet normal 0 0 -1
    outer loop
      vertex -10 15 -16
      vertex 0 1 -16
      vertex -1.76336 0.427052 -16
    endloop
  endfacet
  facet normal -0 0 -1
    outer loop
      vertex -2.85317 -2.92705 -16
      vertex -10 -19 -16
      vertex -2.85317 -1.07295 -16
    endloop
  endfacet
  facet normal 0 0 -1
    outer loop
      vertex 0 1 -16
      vertex -10 15 -16
      vertex 10 15 -16
    endloop
  endfacet
  facet normal 0 0 -1
    outer loop
      vertex -2.85317 -1.07295 -16
      vertex -10 15 -16
      vertex -1.76336 0.427052 -16
    endloop
  endfacet
  facet normal 0 0 -1
    outer loop
      vertex -10 15 -16
      vertex -2.85317 -1.07295 -16
      vertex -10 -19 -16
    endloop
  endfacet
  facet normal 0 -1 0
    outer loop
      vertex -10 -19 -16
      vertex -3 -19 0
      vertex -10 -19 0
    endloop
  endfacet
  facet normal 0 -1 -0
    outer loop
      vertex -3 -19 0
      vertex -10 -19 -16
      vertex -3 -19 -16
    endloop
  endfacet
  facet normal 0 -1 0
    outer loop
      vertex 3 -19 -16
      vertex 10 -19 0
      vertex 3 -19 0
    endloop
  endfacet
  facet normal 0 -1 -0
    outer loop
      vertex 10 -19 0
      vertex 3 -19 -16
      vertex 10 -19 -16
    endloop
  endfacet
  facet normal 1 -0 0
    outer loop
      vertex -3 -19 0
      vertex -3 -13.5 -16
      vertex -3 -13.5 0
    endloop
  endfacet
  facet normal 1 0 0
    outer loop
      vertex -3 -13.5 -16
      vertex -3 -19 0
      vertex -3 -19 -16
    endloop
  endfacet
  facet normal -1 0 0
    outer loop
      vertex 3 -19 -16
      vertex 3 -13.5 0
      vertex 3 -13.5 -16
    endloop
  endfacet
  facet normal -1 -0 0
    outer loop
      vertex 3 -13.5 0
      vertex 3 -19 -16
      vertex 3 -19 0
    endloop
  endfacet
  facet normal 0 -1 0
    outer loop
      vertex -3 -13.5 -16
      vertex 3 -13.5 0
      vertex -3 -13.5 0
    endloop
  endfacet
  facet normal 0 -1 -0
    outer loop
      vertex 3 -13.5 0
      vertex -3 -13.5 -16
      vertex 3 -13.5 -16
    endloop
  endfacet
endsolid OpenSCAD_Model
